<svg xmlns="http://www.w3.org/2000/svg" viewBox="0 0 473 423.58">
  <defs>
    <style>
      .cls-1 {
        fill: #261c19;
      }

      .cls-2 {
        fill: #563d31;
      }

      .cls-3 {
        fill: #f5f9d4;
      }

      .cls-4 {
        fill: #2b1204;
      }

      .cls-5 {
        fill: #f1b2d2;
      }

      .cls-6 {
        fill: #0f0902;
      }

      .cls-7 {
        fill: #754c24;
        stroke: #000;
        stroke-miterlimit: 10;
        stroke-width: 0.27px;
      }

      .cls-8 {
        fill: #42210b;
      }

      .cls-13, .cls-14, .cls-9 {
        fill: #fff;
      }

      .cls-10 {
        fill: #d54b32;
      }

      .cls-11 {
        fill: #60473d;
      }

      .cls-12 {
        fill: #160a06;
      }

      .cls-13 {
        font-size: 102.14px;
      }

      .cls-13, .cls-14 {
        font-family: Chewy-Regular, Chewy;
      }

      .cls-14 {
        font-size: 70.35px;
      }
    </style>
  </defs>
  <title>chico</title>
  <g id="chco">
    <g id="Layer_4" data-name="Layer 4">
      <path class="cls-1" d="M267.34,259s-1.08-21.64-7.57-27.05c0,0,3.24,13-1.08,17.31,0,0-6.49-8.65-5.41-10.82,0,0-3.25,1.08-3.25,4.33,0,0-10.82-11.9-21.63-14.06,0,0-4.33-1.09-5.41-4.33a4.73,4.73,0,0,0-4.33,3.24s-13-3.24-20.56,5.41c0,0,9.74,8.66,3.25,19.48s-11.9,16.22-11.9,16.22h3.24s-2.16,3.25-4.32,3.25c0,0,3.24,2.16,5.41,1.08a8.09,8.09,0,0,1-6.5,5.41s2.17,1.08,6.5,0c0,0,11.9,2.16,3.24,6.49,0,0,0-1.08-8.65,6.49,0,0,4.32-1.08,7.57,0,0,0-1.08,2.17-5.41,4.33s3.25,1.08,3.25,1.08-4.33,6.49-2.17,8.66c0,0,1.08,1.08-1.08,2.16a1.5,1.5,0,0,0,2.16,0s-2.16,2.16-1.08,4.33c0,0,2.17-3.25,3.25-3.25s-1.08,2.17,0,5.41a11.82,11.82,0,0,0,2.16,4.33s1.08-5.41,2.17-5.41S194.86,319.62,197,324c0,0,2.17-3.25,4.33-3.25,0,0-4.33,3.25-4.33,7.58,0,0,4.33-2.17,6.49-1.09l-3.24,2.17s-8.66,5.41-9.74,9.73,8.66,3.25,8.66,3.25,2.16-1.08-1.09,3.25a8.6,8.6,0,0,0-1.08,8.65s2.17-2.16,4.33-2.16-1.08,17.31-11.9,21.63c0,0,3.24,3.25,9.74,3.25a7,7,0,0,1-3.25,5.41s0,1.08,3.25,0-7.58,9.73-9.74,9.73,7.57,1.09,10.82-1.08c0,0-4.33,3.25-6.49,3.25,0,0,2.16,5.41,6.49,5.41s-9.74,6.49-11.9,6.49c0,0,4.32,4.33,7.57,4.33s-1.08,3.24-1.08,3.24a5.33,5.33,0,0,0,3.24-1.08c1.09-1.08-2.16,3.25-1.08,6.49,0,0,2.17-4.33,3.25-3.24s-2.17,3.24-2.17,7.57c0,0,5.41-3.25,7.58-2.17s-2.17,10.82-6.49,11.91c0,0,5.4,2.16,13,10.81s20.55,23.8,20.55,23.8,15.15,20.56,14.07,29.21H409.06l8.66-86.54L411.23,404s16.23-3.25,13-22.72c0,0-6.49,3.24-17.31,1.08a7.44,7.44,0,0,1,5.41-4.33s-3.25-5.41-11.9-2.16c0,0,4.33-7.58,10.82-5.41,0,0-5.41-4.33-8.66-3.25,0,0,7.58-7.57,9.74-6.49,0,0-8.66,0-11.9-2.16,0,0,13-2.17,15.15,0s-5.41-7.58-18.4-8.66a12.93,12.93,0,0,1-4.32-4.32c-2.17-3.25,9.73,1.08,10.81,3.24,0,0-5.4-10.82-13-10.82,0,0,6.49-2.16,9.74,0s2.16-11.9-8.66-19.47c0,0,6.5-1.08,7.58,1.08,0,0,0-5.41-2.17-5.41,0,0,3.25-4.33,7.58-3.24a43.41,43.41,0,0,0-3.25-4.33c-1.08-1.08,4.33-3.25,6.49-3.25s-4.33-3.24-8.65-3.24c0,0,5.41-2.17,7.57-1.08,0,0-2.16-3.25-3.25-3.25s4.33,0,4.33-3.25a8.47,8.47,0,0,1-5.41-2.16s5.41-4.33,6.49-3.24S410.15,285,408,285s2.17-7.57,5.41-7.57c0,0-4.33-6.49-9.74-7.57,0,0,5.41-19.48,0-26,0,0-14.06-17.31-43.27-2.16l-6.49,5.41s0-7.58,2.16-7.58c0,0-8.65,4.33-9.73,10.82,0,0,1.08-5.41-1.09-5.41,0,0,0,7.58-2.16,7.58,0,0-2.16-9.74,0-10.82a12.2,12.2,0,0,0-4.33,5.41s-1.08-8.66-5.41-9.74c0,0,3.25,10.82,0,13,0,0-3.24,0-4.32-2.16,0,0,0,7.57,1.08,10.82,0,0-9.74-1.08-9.74-4.33,0,0-1.08,3.25,0,4.33,0,0-1.08-3.25-2.16-3.25,0,0-1.08,2.17-2.16,2.17S270.59,256.87,267.34,259Z" transform="translate(-64 -224.42)"/>
    </g>
    <g id="Layer_9" data-name="Layer 9">
      <path class="cls-2" d="M316,422.4s19.47,5.41,20.55,9.73a7.5,7.5,0,0,0-5.41,0c-3.24,1.09,9.74,5.41,10.82,10.82a22.1,22.1,0,0,0-5.41-1.08S342,443,342,448.36c0,0-3.25-2.16-5.41-1.08,0,0,0,4.33,5.41,9.74s-1.08,11.9-1.08,11.9a5.24,5.24,0,0,0,0-4.33s-2.17,8.65-8.66,14.06c0,0,1.08-6.49,0-6.49,0,0-8.65,4.33-7.57,13,0,0-3.25-5.41-3.25-9.73l-1.08,14.06-37.86,1.08s-1.08-5.41,2.16-9.73c0,0-4.33,5.41-6.49,5.41,0,0,4.33-9.74-1.08-13a22.1,22.1,0,0,0-1.08,5.41c0,2.17-1.09,0-1.09,0a90.93,90.93,0,0,0-2.16-10.82s-5.41-2.16-5.41,2.17a6,6,0,0,1-2.16-6.49s-3.25,2.16-3.25,5.41c0,0-4.32-7.58-2.16-13,0,0-6.49,4.33-5.41,11.9,0,0-7.57-8.65-6.49-17.31,0,0-3.25-1.08-3.25,3.25,0,0-4.32-6.49-3.24-10.82a6.81,6.81,0,0,0-3.25,7.57s-5.41-7.57-4.33-14.06c0,0-3.24,2.16-4.32,4.33,0,0-6.49-13-4.33-18.39,0,0-3.25,5.41-11.9,4.32,0,0,5.41-5.41,3.24-10.81,0,0-10.31.32-16-5.25,0,0,7.32,2,11.65-1.25l-22.72-7.57s16.23-3.24,18.39-7.57c0,0-7.71-2.19-10.89,0,0,0,7.64-6.48,9.81-11.89l-7.57,3.24,7.57-10.81s-4.61-12.2-14.75-7.18L208.92,351l-5.41,1.09,4.33-7.58-6.49-1.08,6.49-2.16-5.41-2.17-9.08-5.81,11.24.4L210,324l-11.9,3.24,61.67-36.78,77.89,4.33,32.46,50.85Z" transform="translate(-64 -224.42)"/>
      <path class="cls-2" d="M245.7,319.62s-28.12,2.16-33.53,5.41,20.55-16.23,20.55-16.23l14.74-2.42s-39.62,7.83-41.78,14.32l21.63-17.31s-26,10.82-27,15.15-1.53-.29-1.53-.29l9.1-10.53,11.9-6.49,22.72-6.49,19.14,5.33Z" transform="translate(-64 -224.42)"/>
      <path class="cls-2" d="M207.84,285s-9.74,5.41-9.74,9.74S207.84,285,207.84,285Z" transform="translate(-64 -224.42)"/>
      <path class="cls-2" d="M207.84,295.82c-9.74,5.41-10.82,9.74-10.82,9.74L214.33,298Z" transform="translate(-64 -224.42)"/>
      <path class="cls-2" d="M206.44,259.15s-10.5,7.46-10.5,11.79h0s10.56-10.86,15-10.84S206.44,259.15,206.44,259.15Z" transform="translate(-64 -224.42)"/>
      <polygon class="cls-2" points="144.61 40.2 132.28 50.12 144.61 40.2 144.61 40.2 144.61 40.2 144.61 40.2 144.61 40.2"/>
      <path class="cls-2" d="M207.84,264.45s-14.06,7.57-14.06,9.73Z" transform="translate(-64 -224.42)"/>
      <path class="cls-2" d="M200.42,232.93s7.42-7.43,17.16-4.18c0,0-6.2-2.45-17.16,4.18h0" transform="translate(-64 -224.42)"/>
      <path class="cls-2" d="M261.69,304.53s4.67-33.61-1.87-41.72h0s6.44,6,7.52,10.29c0,0-1.08-6.49,1.08-9.74,0,0,0,8.66,3.25,10.82a24.43,24.43,0,0,0,0-9.73s1.08,4.32,4.33,5.41c0,0,3.24-5.41,0-8.66,0,0,1.08,1.08,5.41,6.49l8.65,34.62Z" transform="translate(-64 -224.42)"/>
      <path class="cls-2" d="M296.05,303.45s-3.65-33.61,1.47-41.72h0s-5,6-5.89,10.29c0,0,.84-6.49-.85-9.74,0,0,0,8.66-2.54,10.82a31,31,0,0,1,0-9.74s-.85,4.33-3.39,5.41c0,0-2.54-5.41,0-8.65,0,0-.85,1.08-4.24,6.49l-6.78,34.62Z" transform="translate(-64 -224.42)"/>
      <path class="cls-2" d="M290.43,302.52s12.84-31.35,9.31-40.7h0s4,7.26,3.8,11.69c0,0,.77-6.52,3.49-9.14,0,0-2.27,8.35,0,11.2a27.5,27.5,0,0,0,2.55-9.4s-.2,4.43,2.31,6.23c0,0,4.22-4.46,2.27-8.35,0,0,.65,1.3,3,7.53L315.5,307Z" transform="translate(-64 -224.42)"/>
      <path class="cls-2" d="M340.24,307.78s-5.95-33.62,2.38-41.72h0s-8.2,6-9.58,10.29c0,0,1.38-6.49-1.38-9.74,0,0,0,8.65-4.13,10.82a19.44,19.44,0,0,1,0-9.74S326.16,272,322,273.1c0,0-4.13-5.41,0-8.65,0,0-1.37,1.08-6.88,6.49l-11,34.62Z" transform="translate(-64 -224.42)"/>
      <path class="cls-2" d="M339.42,301.23c18.86,5.41,21,9.74,21,9.74l-33.54-7.58Z" transform="translate(-64 -224.42)"/>
      <path class="cls-2" d="M348.48,312.05s18.39,3.32,18.39,6S348.48,312.05,348.48,312.05Z" transform="translate(-64 -224.42)"/>
      <path class="cls-2" d="M350.64,253.63s21.27-15.6,25.78-15.38Z" transform="translate(-64 -224.42)"/>
      <path class="cls-2" d="M352.53,268.45s12.18-22.4,38.14-24.56c0,0-26.52,10.17-38.14,24.56" transform="translate(-64 -224.42)"/>
    </g>
    <g id="Layer_5" data-name="Layer 5">
      <path class="cls-3" d="M240.92,291.72s-15-1.37-17.76,1.37c0,0,0-4.1,1.36-5.47,0,0-8.2,1.37-10.93,8.2,0,0,4.1-15,6.83-15,0,0-4.1,0-5.46,1.36,0,0,1.36-5.46,2.73-5.46,0,0-8.2,0-10.93-5.47a14.08,14.08,0,0,0,5.46,1.37s0-4.1-2.73-4.1a4.78,4.78,0,0,1,2.73-1.37s-2.73-5.46-1.36-9.56a4.24,4.24,0,0,0,1.36,2.73,20,20,0,0,1,4.1-6.83v2.73s5.47-2.73,5.47-6.83l1.37,2.73s4.1-4.1,2.73-8.2A10.25,10.25,0,0,1,230,248s1.37-2.73,2.73-2.73c0,0-1.36,2.73,0,2.73s2.74-4.1,5.47-4.1c0,0-1.37,4.1,0,5.47a1.34,1.34,0,0,0,1.37-1.37v2.73s4.09-1.36,6.83,0c0,0-4.1,0-4.1,1.37a1.88,1.88,0,0,1,2.73,0l-1.37,1.37s4.1,0,5.47,2.73c0,0-2.73-1.37-2.73,0s2.73,1.37,4.1,2.73c0,0-2.74-1.36-2.74,0s1.37,0,1.37,0,0,2.74-1.37,2.74c0,0,1.37-1.37,4.1,1.36a1.34,1.34,0,0,0-1.36,1.37s2.73,0,2.73-1.37a1.9,1.9,0,0,1,0,2.74c-1.37,1.36,2.73,2.73,4.1,6.83,0,0-2.73-4.1-4.1-1.37,0,0,1.37,2.74,2.73,1.37,0,0,0,1.37-2.73,1.37,0,0,2.73,0,4.1,4.09a3,3,0,0,0-4.1,1.37s0-1.37,1.37,0a1.34,1.34,0,0,0-1.37,1.37,1.89,1.89,0,0,1,2.73,0,1.33,1.33,0,0,0-1.36,1.36c0,1.37,4.1,1.37,4.1,2.74S240.92,291.72,240.92,291.72Z" transform="translate(-64 -224.42)"/>
      <path class="cls-3" d="M273.83,324s9.74,11.9,14.07,0c0,0,2.16-6.49,1.08-9.74,0,0,0-3.24,1.08-4.33,0,0-3.24,0-3.24,2.17,0,0,3.24-4.33,2.16-7.58,0,0,0,3.25-1.08,3.25,0,0-2.17-3.25-1.08-4.33,0,0-2.17,1.08-2.17,2.17a8.13,8.13,0,0,1-3.24-6.49s2.16-1.09,2.16,1.08c0,0,0-4.33-1.08-5.41a1.5,1.5,0,0,1,2.16,0,4,4,0,0,0-3.24-2.17s0-1.08,2.16-1.08c0,0-2.16-2.16-4.33-2.16s1.08-3.25,2.17-2.16c0,0-3.25-2.17-4.33-1.09s-6.49-3.24-6.49-5.41-1.08,1.09-1.08,1.09a1.07,1.07,0,0,1-1.09-1.09c0-1.08-1.08,4.33,1.09,6.5s1.08,2.16,1.08,2.16,0,1.08-1.08,0,0,3.24,0,3.24,0,1.09-1.09,0a8.12,8.12,0,0,0,3.25,3.25s-1.08,2.16-2.16,1.08c0,0,1.08,2.17,2.16,2.17,0,0-1.08,2.16-2.16,1.08,0,0,1.08,2.16,2.16,2.16,0,0-1.08,0-1.08,2.16,0,0,0-1.08,1.08,0,0,0,1.08,1.09-1.08,2.17a2.12,2.12,0,0,0,2.16,2.16,4.74,4.74,0,0,0-1.08,3.25s3.24-3.25,5.41,0c0,0-3.25-1.08-3.25,0,0,0,3.25,1.08,2.17,3.24a1.06,1.06,0,0,1-1.09-1.08s-2.16,0-1.08,2.17c0,0-2.16,1.08-2.16,0C271.67,316.38,269.51,319.62,273.83,324Z" transform="translate(-64 -224.42)"/>
      <path class="cls-3" d="M286.82,329.36s-5.41,7.57-13,0-16.22-9.74-20.55-4.33c0,0,3.24,0,4.33,2.16,0,0-4.33,5.41-6.5,3.25,0,0-1.08,7.57,2.17,10.82S267.34,351,276,344.5A30.12,30.12,0,0,0,286.82,329.36Z" transform="translate(-64 -224.42)"/>
      <path class="cls-3" d="M310.62,331.52s-5.41-9.74,2.16-18.39,10.82-9.74,10.82-11.9c0,0,2.16,3.24,0,5.41,0,0,2.16-3.25,4.33-2.17,0,0-1.09,3.25,0,5.41a10.88,10.88,0,0,0,1.08-3.24s1.08,5.41,0,8.65c0,0,0-1.08,2.16,0,0,0-4.33,3.25-4.33,5.41S325.76,332.6,310.62,331.52Z" transform="translate(-64 -224.42)"/>
      <path class="cls-3" d="M312.78,334.77s4.48.64,13.6-7.25,19.94,1.84,21,2.92c0,0-4.33-2.16-8.66-1.08,0,0,5.41,0,6.49,3.24,0,0-3.24-1.08-4.32,0,0,0,5.41,1.08,5.41,4.33l-2.17-1.08s2.17,3.24,0,5.41l-1.08-1.08s-5.41,16.22-23.8,11.9C319.27,352.08,312.78,348.83,312.78,334.77Z" transform="translate(-64 -224.42)"/>
      <path class="cls-3" d="M252.2,367.22s-1.31-2.11-6.06,1.11a4.65,4.65,0,0,0-2.77,4.39s2.33-3.33,3.42-2.25-3.25,3.24-3.25,5.41c0,0,2.16-2.17,5.41,0,0,0-3.25,0-3.25,1.08s5.41,1.08,5.41,1.08S250,378,249,380.2s13,1.09,13,1.09-2.16-6.49-5.41-5.41a3.18,3.18,0,0,1,3.25-3.25h-1.08s-1.08-2.16-5.41-1.08c0,0,0-3.25,2.16-3.25S252.2,367.22,252.2,367.22Z" transform="translate(-64 -224.42)"/>
      <path class="cls-3" d="M230.56,374.8s-1.08,2.16-6.49,1.08a2.37,2.37,0,0,0,1.08,3.24s5.41,1.08,4.33,4.33c0,0,2.16-6.49,6.49-5.41C236,378,232.72,372.63,230.56,374.8Z" transform="translate(-64 -224.42)"/>
      <path class="cls-3" d="M349.56,374.8l1.08-6.5s-2.16-1.08-3.24,2.17c0,0,0-6.49,3.24-7.58,0,0-3.24-2.16-5.41,0,0,0,4.33-5.4,6.5-5.4s-5.41-2.17-5.41-5.41a5.22,5.22,0,0,0,4.32,0s-3.24,0-4.32-4.33a14.52,14.52,0,0,0,5.41-1.08c2.16-1.08-3.25-3.25-3.25-3.25s0-4.33,3.25-6.49c0,0-1.09,4.33,4.32,6.49s18.39,0,19.48,7.57-5.41,11.9-5.41,11.9Z" transform="translate(-64 -224.42)"/>
      <path class="cls-3" d="M346.32,267.69s11.9-14.06,15.14-15.14C361.46,252.55,350.64,254.71,346.32,267.69Z" transform="translate(-64 -224.42)"/>
      <path class="cls-3" d="M348.48,274.18S368,245,384.18,245C384.18,245,364.71,238.48,348.48,274.18Z" transform="translate(-64 -224.42)"/>
      <path class="cls-3" d="M358.22,290.41s-6.49-3.24-7.58,2.16c0,0-2.16-5.4,3.25-6.49,0,0-3.25-1.08-4.33,0s4.33-3.24,3.25-6.49c0,0-3.25-1.08-3.25,1.08,0,0-1.08-9.73,5.41-13s11.9,2.17,14.07-2.16-3.25-2.17-3.25-2.17,4.33-3.24,6.49,0,1.08,0,3.25-1.08a5.36,5.36,0,0,0,1.08,3.25s3.24-3.25,6.49-2.17c0,0-3.25,1.09-1.08,3.25,0,0,1.08-2.16,5.41-1.08s-1.08,3.24-1.08,3.24,1.08-3.24,5.4,1.09a2.36,2.36,0,0,0-3.24,1.08s3.24-1.08,5.41,3.24c0,0-3.25-2.16-5.41,1.08,0,0,2.16,2.17,3.24,1.09,0,0-1.08,2.16-4.32,1.08,0,0,7.57,1.08,8.65,6.49,0,0-4.33-4.33-8.65,0,0,0,1.08,1.08,4.32,0,0,0-2.16,4.33-4.32,4.33s3.24-2.17-2.17-2.17c0,0-4.32,2.17-1.08,4.33,0,0-4.33-1.08-4.33-2.16,0,0-4.32,2.16-2.16,4.32,0,0,1.08-6.49-5.41-3.24S358.22,290.41,358.22,290.41Z" transform="translate(-64 -224.42)"/>
      <path class="cls-3" d="M374.44,258s9.74-5.41,13-4.33,3.24,7.57,3.24,7.57a2.12,2.12,0,0,0,2.17,2.16c2.16,0-1.87,4.08-3.64,3.66S374.44,258,374.44,258Z" transform="translate(-64 -224.42)"/>
      <path class="cls-3" d="M371.2,304.47s4.33-4.32,7.57-4.32c0,0-2.16-5.41-4.33-3.25,0,0,22.72-6.49,29.21-1.08,0,0-2.16-1.08-6.49,1.08,0,0,4.33,0,6.49,5.41,0,0-6.49-3.24-8.65,0,0,0,6.49,1.08,6.49,7.57C401.49,309.88,379.85,299.07,371.2,304.47Z" transform="translate(-64 -224.42)"/>
      <path class="cls-3" d="M384.18,307.72s11.35-3.91,15.41,4C399.59,311.71,391.75,305.56,384.18,307.72Z" transform="translate(-64 -224.42)"/>
      <path class="cls-3" d="M302,354.24s-3.24,0-3.24-2.16-1.09,2.16-1.09,2.16a3.77,3.77,0,0,1-1.08-2.16,1.06,1.06,0,0,0-1.08,1.08V351s0,2.17-1.08,2.17a3.77,3.77,0,0,1-1.08-2.17,3.8,3.8,0,0,0-1.09,2.17s-5.4,2.16-6.49-1.08a1.06,1.06,0,0,1-1.08,1.08s-2.16-2.17,0-3.25c0,0-4.33,0-4.33,2.17,0,0,0-3.25-2.16-3.25,0,0,1.08,2.16,0,3.25a4.77,4.77,0,0,1-1.08-3.25s-2.17,0-2.17,1.08a6.68,6.68,0,0,0-4.32,2.17,2.36,2.36,0,0,1,3.24,1.08s-2.16,2.16-4.32,1.08c0,0,1.08,2.16,2.16,2.16a8.43,8.43,0,0,0-5.41,2.17,1.5,1.5,0,0,1,2.16,0s-2.16,0-3.24,3.24a3.77,3.77,0,0,1,2.16-1.08c1.08,0-1.08,3.25-3.24,3.25a3.77,3.77,0,0,0,2.16,1.08,6.72,6.72,0,0,0-4.33,2.16s3.25,0,4.33,2.17l3.25,5.41s-4.33,0-5.41-2.17c0,0-2.17,5.41,0,9.74a10,10,0,0,1-8.5,0s-3.4,7.58,6.33,17.32c0,0-9.73-11.9-13-11.9,0,0,1.08,2.16-3.25,2.16,0,0-9.73,0-7.57-4.33,0,0-5.41-2.16-5.41,0s-4.32,0-4.32,0,1.08,3.25-1.09,4.33a4.72,4.72,0,0,0-4.32,3.25c-1.09,3.24,8.65,1.08,8.65,4.32a22.43,22.43,0,0,0-2.16,8.66s2.16-3.25,4.32-3.25,0,3.25,0,3.25a10.79,10.79,0,0,0,4.33-1.08s-1.08,4.32-4.33,4.32c0,0,9.74,1.09,11.9-3.24s-1.08,3.24,0,5.41a5.32,5.32,0,0,1,1.09-3.25,28.65,28.65,0,0,0,1.08,7.58s1.08-4.33,2.16-4.33-4.33,8.65,0,14.06c0,0,1.08-5.41,3.25-5.41,0,0-1.08,3.25,0,4.33a2.12,2.12,0,0,1,2.16-2.16s2.17,3.24,0,5.41c0,0,4.33-1.09,4.33-2.17a7.81,7.81,0,0,0,0,7.58s-1.08-3.25,1.08-3.25c0,0,3.25,4.33,2.16,6.49,0,0,2.17-2.16,2.17-3.24,0,0-3.25,6.49,1.08,10.81,0,0,0-4.32,1.08-5.41a4.77,4.77,0,0,1,1.08,3.25,4.72,4.72,0,0,0,1.09-3.25s4.32,5.41,3.24,9.74a4,4,0,0,0,2.16-3.24s-1.08,3.24,1.09,4.32c0,0,1.08-3.24,2.16-4.32,0,0,1.08,5.4-1.08,6.49,0,0,5.41-2.17,6.49-6.49a3.84,3.84,0,0,0,2.16,3.24s0-4.33,1.09-5.41,1.08,1.08,2.16,2.17a5.36,5.36,0,0,1,1.08-3.25s2.16-1.08,2.16,0a4.72,4.72,0,0,0,1.09-3.25s2.16,0,3.24,3.25a5.24,5.24,0,0,0,0-4.33s2.17,0,2.17,1.08c0,0,1.08-2.16,0-3.24a8.06,8.06,0,0,0,3.24,3.24s-1.08-5.4,1.08-6.49a11,11,0,0,1,1.08,3.25,11.11,11.11,0,0,0,1.09-4.33,29.67,29.67,0,0,0,6.49,6.49s-1.08-7.57,2.16-9.73c0,0,10.82-1.09,11.9,4.32,0,0,3.25-8.65,1.08-11.9a20.16,20.16,0,0,0,8.66,0s-3.25,0-4.33-2.16a1.5,1.5,0,0,0,2.16,0l-1.08-2.16s5.41-1.09,7.58,1.08c0,0-1.09-4.33-3.25-4.33,0,0,2.16-1.08,3.25,0a2.37,2.37,0,0,0-1.09-3.25,1.51,1.51,0,0,1,2.17,0s0-3.24-1.08-3.24c0,0,3.24,2.16,5.4,1.08a4,4,0,0,1-2.16-3.24,1.06,1.06,0,0,1,1.08,1.08s1.08-3.25,0-3.25,7.58-5.41,11.9-10.82a18,18,0,0,1,13-6.49c2.16,0-2.17-1.08-4.33-1.08,0,0,5.41-3.25,7.57-2.16,0,0-6.49-7.58-16.23,1.08l-6.49,5.41s6.49-6.49,5.41-9.74c0,0-16.23,13-21.64,14.06,0,0,3.25-8.65,6.5-9.73a1.51,1.51,0,0,0-2.17,0s2.17-4.33,6.49-4.33c0,0,2.17-3.24-11.9-8.65s-14.06-15.15-14.06-15.15-1.08-5.41-5.41-5.41S304.12,354.24,302,354.24Z" transform="translate(-64 -224.42)"/>
      <path class="cls-3" d="M365.79,374.8s7.57-4.33,15.15,3.24,16.22,5.41,16.22,5.41-5.41,9.74-14.06,3.25S372.28,372.63,365.79,374.8Z" transform="translate(-64 -224.42)"/>
      <path class="cls-3" d="M394.62,394.27s20.56-2.17,22.72-7.57c0,0,3.25,7.57-4.33,10.81Z" transform="translate(-64 -224.42)"/>
      <path class="cls-3" d="M371.9,386.7s6.49,5.4,8.66,10.81,9.73,4.33,9.73,4.33-13,5.41-26-9.74c0,0,3.24-4.32,0-7.57S371.9,386.7,371.9,386.7Z" transform="translate(-64 -224.42)"/>
      <path class="cls-3" d="M364.33,397.51s23.8,15.15,36.78,8.66c0,0-9.73,10.82-26,5.41,0,0,11.9,7.57,19.47,2.16,0,0-9.74,15.15-23.8,2.17L362.17,404,373,406.17S365.41,401.84,364.33,397.51Z" transform="translate(-64 -224.42)"/>
      <path class="cls-3" d="M348.1,399.68s8.66,1.08,10.82,6.49C358.92,406.17,360,395.35,348.1,399.68Z" transform="translate(-64 -224.42)"/>
      <path class="cls-3" d="M344.86,402.92s9.73-3.24,11.9,8.66C356.76,411.58,350.27,404,344.86,402.92Z" transform="translate(-64 -224.42)"/>
      <path class="cls-3" d="M360,401.84s10.82,11.9,13,20.56,7.58,4.32,7.58,4.32-5.41,5.41-14.07-4.32c0,0,1.08,5.41,2.17,7.57,0,0-9.74-5.41-10.82-11.9S360,411.58,360,401.84Z" transform="translate(-64 -224.42)"/>
      <path class="cls-3" d="M349.18,410.5s14.07,11.9,15.15,24.88c0,0-11.9,3.24-18.39-19.47,0,0,6.49,7.57,9.73,8.65C355.67,424.56,353.51,415.91,349.18,410.5Z" transform="translate(-64 -224.42)"/>
      <path class="cls-3" d="M384.18,343.42s3.25-17.31-8.65-23.8c0,0,18.39,10.82,13,26Z" transform="translate(-64 -224.42)"/>
      <path class="cls-3" d="M377.69,343.42s4.33-7.57,2.16-13c0,0,3.25,15.15,0,18.39S377.69,343.42,377.69,343.42Z" transform="translate(-64 -224.42)"/>
      <path class="cls-3" d="M245.7,362.89s-11.9-11.9-2.16-27c0,0-1.08-2.17-4.33,0a2.37,2.37,0,0,1,1.09-3.25s-9.74-2.16-11.9,4.33c0,0-3.25-1.08-1.09-4.33,0,0-7.57,3.25-4.32,13,0,0-2.17-3.25-5.41-1.09,0,0,4.32,2.17,5.41,6.49,0,0-4.33,0-4.33,6.5,0,0,2.16-3.25,4.33-3.25,0,0-3.25,11.9,9.73,18.39S245.7,362.89,245.7,362.89Z" transform="translate(-64 -224.42)"/>
      <path class="cls-2" d="M336.67,328.35s24.52,10.26,28.5,14.38-14.1-18.61-14.1-18.61l-12.52-6.35s33.29,18.08,33.53,23.66L357.3,321.68s20.33,16.16,20.17,19.77,1.44.25,1.44.25l-5.37-10.77-8.92-8.57-18.57-11.89-18.46-1.82Z" transform="translate(-64 -224.42)"/>
    </g>
    <g id="Layer_6" data-name="Layer 6">
      <path class="cls-4" d="M201.12,343.85s5.29-7.92,18.73-7.39c0,0-2.11-.25-4.59,2,0,0,4.59-2,6.7-1.75,0,0-13.22,4.24-14.72,10.28,0,0-1.55-2-.78-3a3.67,3.67,0,0,1-2.49,2.25,6.7,6.7,0,0,0,.37-2.51s-3.07,0-2.48,2.26a1.54,1.54,0,0,1,.37-2.52Z" transform="translate(-64 -224.42)"/>
      <path class="cls-4" d="M259.77,264.45s-3.25-13-10.82-14.07c0,0,3.25,2.17,3.25,5.41a4.77,4.77,0,0,0-3.25-1.08s5.41,2.16,6.49,7.57Z" transform="translate(-64 -224.42)"/>
      <path class="cls-4" d="M234.55,297.2s-7.11,5.81-11.31,4.3c0,0,3.34-.75,3.45-1.83,0,0-5.38-.54-6.67,1.5,0,0,1.4-3.12,3.55-2.9a5.34,5.34,0,0,1-3.12-1.41s3.12,1.41,3.23.33c0,0-.75-3.34-2.9-3.55,0,0,3.34-.75,4.3.43,0,0-2-1.29-1.93-2.37,0,0,2,1.29,3.23.33s8.61.87,8.83-1.28c0,0,1.62-5.28,2.69-5.17l-.21,2.15s2.37-1.93,1.4-3.12c0,0,2,1.3,1.93,2.37a3.8,3.8,0,0,1-1.29,2s2,1.29,2.15.22a3.85,3.85,0,0,1-2.48,3,1.06,1.06,0,0,0,1,1.18S235.74,296.24,234.55,297.2Z" transform="translate(-64 -224.42)"/>
      <path class="cls-4" d="M236.18,234.13s8.4,3.72,8.94,8.14c0,0-2.17-2.64-3.18-2.25,0,0,1.94,5,4.35,5.28,0,0-3.42.16-4.19-1.86a5.37,5.37,0,0,1,.15,3.42s-.15-3.42-1.16-3c0,0-2.64,2.18-1.86,4.2,0,0-2.18-2.64-1.56-4,0,0-.23,2.41-1.24,2.8,0,0,.23-2.41-1.17-3s-3.11-8.08-5.13-7.3c0,0-5.44.94-5.83-.07l2-.78s-2.8-1.24-3.42.16c0,0,.23-2.41,1.24-2.8a3.78,3.78,0,0,1,2.41.23s.23-2.4-.78-2a3.85,3.85,0,0,1,3.81.85,1.06,1.06,0,0,0,.62-1.4S234.79,233.51,236.18,234.13Z" transform="translate(-64 -224.42)"/>
      <path class="cls-4" d="M265.18,260.12s1.08-16.23-2.17-20.56c0,0,1.09,10.82,0,13S265.18,260.12,265.18,260.12Z" transform="translate(-64 -224.42)"/>
      <path class="cls-4" d="M258.69,250.38s-6.49-8.65-6.49-9.73c0,0-3.25,5.4,0,7.57A12.89,12.89,0,0,0,258.69,250.38Z" transform="translate(-64 -224.42)"/>
      <path class="cls-4" d="M193.78,266.61s21.63-29.21,4.32-33.54c0,0,6.49-1.08,9.74,1.08a1.06,1.06,0,0,0-1.08,1.09,1.49,1.49,0,0,1,2.16,0,1.06,1.06,0,0,0-1.08,1.08,2.38,2.38,0,0,1,3.25,1.08s-1.09-1.08-1.09,0c0,0,1.09,2.16,2.17,1.08,0,0,0,2.17-1.08,2.17,0,0,0-1.09,2.16,0,0,0-2.16,1.08-2.16,2.16s-2.17,4.33-2.17,4.33Z" transform="translate(-64 -224.42)"/>
      <path class="cls-4" d="M198.1,263.36s-2.16,7.58-4.32,7.58c0,0,6.49-4.33,7.57-6.49s5.41-8.66,7.57-8.66C208.92,255.79,200.27,259,198.1,263.36Z" transform="translate(-64 -224.42)"/>
      <path class="cls-4" d="M192.3,276.86s10.13-7,12.29-12.41,9.74-11.9,11.9-10.82c0,0-10.81,10.82-10.81,15.14S192.3,276.86,192.3,276.86Z" transform="translate(-64 -224.42)"/>
      <path class="cls-4" d="M196.36,270.54a31.23,31.23,0,0,0,3.91-2.85S202.19,269.06,196.36,270.54Z" transform="translate(-64 -224.42)"/>
      <path class="cls-4" d="M195.94,277.43s9.74,4.33,3.25,8.65c0,0,6.49-5.41,8.65-4.32,0,0-2.16-3.25-4.33-2.17,0,0,0-5.41,2.17-5.41C205.68,274.18,198.1,274.18,195.94,277.43Z" transform="translate(-64 -224.42)"/>
      <path class="cls-4" d="M225.15,252.55s0-19.48-11.9-21.64c0,0,4.33,5.41,4.33,8.65,0,0-6.49-11.9-11.9-8.65,0,0,10.81,7.57,10.81,15.14S225.15,252.55,225.15,252.55Z" transform="translate(-64 -224.42)"/>
      <path class="cls-4" d="M286.62,353.78s1,1.85,0,2.78c0,0,2.06-.93,2.06-1.86,0,0,1-.92,0,.93,0,0,1,0,1-.93a1.89,1.89,0,0,0,2.06,1.86s-1,0,0-.93c0,0,.24-.68.64.13s1.43.8,1.43,1.73a1.21,1.21,0,0,0,0-1.86s1,0,1,.93a7.9,7.9,0,0,0,.74-1.76,2.24,2.24,0,0,0,2.36,1.76s-1,0-1-.93,5.16.93,5.16.93a3.17,3.17,0,0,1-1-1.86s1,0,1,.93c0,0,1-1.85,2.06-.93,0,0,1-2.78,0-2.78s0-.93,0-.93-1,.93-1,0a1.2,1.2,0,0,1,2.07-.92,3.82,3.82,0,0,0-3.1-1.86.94.94,0,0,1,1-.92,1.53,1.53,0,0,0-2.06,0s1-.93,0-.93a3.77,3.77,0,0,1-2.07.93c-1,0-3.1-.93-2.06-2.79,0,0-2.07.93-2.07,1.86a1,1,0,0,0-1-.93s0,1.86-1,1.86c0,0-1-.93,0-.93,0,0-1,0-1,.93a1,1,0,0,0-1-.93,1,1,0,0,1-1,.93s0-1.86,1-1.86c0,0-2.07,0-2.07.93,0,0-2.06,0-2.06.93a6.76,6.76,0,0,0-4.13,1.85,8.69,8.69,0,0,1,3.1.93s-2.07-.93-2.07,0c0,0,2.07,0,2.07.92,0,0-2.07,0-2.07.93a1.54,1.54,0,0,1,2.07,0,3.16,3.16,0,0,0-1,1.86S284.55,352.85,286.62,353.78Z" transform="translate(-64 -224.42)"/>
      <path class="cls-4" d="M279.24,370.47s-3.24-10.82,11.9-10.82,19.48,4.33,19.48,11.9-14.07,16.23-15.15,16.23S284.65,387.78,279.24,370.47Z" transform="translate(-64 -224.42)"/>
      <path class="cls-4" d="M258.31,388.86s7.57,8.65,14.06,7.57c0,0,10.82-5.41,14.07-4.33a8.26,8.26,0,0,0,2.16-5.4h0s1.08,5.4,6.49,5.4c0,0,8.66-1.08,14.06,0a12.3,12.3,0,0,0,11.91-6.49s-11.91,44.36-33.54,42.2c0,0-11.9-6.5-14.07-18.4v-4.32S260.47,401.84,258.31,388.86Z" transform="translate(-64 -224.42)"/>
      <path class="cls-4" d="M242.27,355.45s7.76-8.78,21.83-3.37c0,0-2.17-1.09-5.41,1.08,0,0,5.41-1.08,7.57,0,0,0-15.15,1.08-18.39,8.65,0,0-1.08-3.24,0-4.32a4,4,0,0,1-3.25,2.16,10.86,10.86,0,0,0,1.08-3.25s-3.24-1.08-3.24,2.17a2.38,2.38,0,0,1,1.08-3.25Z" transform="translate(-64 -224.42)"/>
      <path class="cls-4" d="M242.46,343.42s4.33-4.33,8.65-1.08C251.11,342.34,245.7,341.26,242.46,343.42Z" transform="translate(-64 -224.42)"/>
      <path class="cls-4" d="M253.77,344.33s-8.42-1.69-13.47,1.68c0,0,6.73-6.74,13.47-1.68" transform="translate(-64 -224.42)"/>
      <path class="cls-4" d="M258.53,348.1s-11.62-4.36-19.6-.73c0,0,11.17-8,19.6.73" transform="translate(-64 -224.42)"/>
      <path class="cls-4" d="M240.12,352.21s9.86-8.79,27.72-3.38c0,0-2.75-1.08-6.87,1.08,0,0,6.87-1.08,9.62,0,0,0-19.23,1.08-23.35,8.66,0,0-1.38-3.25,0-4.33a5.12,5.12,0,0,1-4.12,2.16s1.37-2.16,1.37-3.24c0,0-4.12-1.08-4.12,2.16,0,0-1.38-2.16,1.37-3.24Z" transform="translate(-64 -224.42)"/>
      <path class="cls-4" d="M265.74,355.2s-12.28,1.74-17.55,8.75c0,0,5.95-12.41,17.55-8.75" transform="translate(-64 -224.42)"/>
      <path class="cls-4" d="M267.33,359.2s-12.24-2-19.37,3.07c0,0,9.4-10,19.37-3.07" transform="translate(-64 -224.42)"/>
      <path class="cls-4" d="M264.59,361.64s-8.42-1.69-13.48,1.68c0,0,6.74-6.74,13.48-1.68" transform="translate(-64 -224.42)"/>
      <path class="cls-4" d="M264.59,364.88s-8.42-1.68-13.48,1.69c0,0,6.74-6.74,13.48-1.69" transform="translate(-64 -224.42)"/>
      <path class="cls-4" d="M253.28,367.22s4.33-4.33,8.65-1.08C261.93,366.14,256.52,365.06,253.28,367.22Z" transform="translate(-64 -224.42)"/>
      <path class="cls-4" d="M254.36,369.39s4.33-4.33,8.65-1.09C263,368.3,257.61,367.22,254.36,369.39Z" transform="translate(-64 -224.42)"/>
      <path class="cls-4" d="M289,340.18s4.33-4.33,8.65-1.09C297.63,339.09,292.22,338,289,340.18Z" transform="translate(-64 -224.42)"/>
      <path class="cls-4" d="M304.89,339.08s-11.25-5.22-19.49-2.2c0,0,11.74-7.18,19.49,2.2" transform="translate(-64 -224.42)"/>
      <path class="cls-4" d="M323.6,355.32s6.85,6.55,10.46,6.52C334.06,361.84,324.68,356.4,323.6,355.32Z" transform="translate(-64 -224.42)"/>
      <path class="cls-4" d="M320.35,355.32s15.15,10.82,20.56,10.82,7.57,14.06,7.57,14.06-7.57-13-21.64-16.22C326.84,364,320.35,361.81,320.35,355.32Z" transform="translate(-64 -224.42)"/>
      <path class="cls-4" d="M326.84,355.32s10.82,8.66,14.07,9.74a5.33,5.33,0,0,1,3.24,1.08S332.25,355.32,326.84,355.32Z" transform="translate(-64 -224.42)"/>
      <path class="cls-4" d="M326.84,354.24a38.37,38.37,0,0,1,6.49-1.08,6.72,6.72,0,0,0-2.68-.88s3.35-1.66,4.1-1.47c0,0,5.08-.9,5.08-2s-2.17,0-2.17,0,2.17-2.16,3.25-2.16c0,0,0,2.16,1.08,2.16s3.24-2.16,2.16-3.24c0,0,2.17,3.24,2.17,4.32,0,0,1.42.26,1.25,1.21,0,0-3.42-.13-2.34,1,0,0,.17,1,1.71,1,0,0-2.79,1.12-1.71,2.2,0,0,2.48.67,2.87-.2a3.37,3.37,0,0,1-1.78,3.45,1.06,1.06,0,0,0,1.08,1.08s-3.25,3.24-5.41,3.24S326.84,354.24,326.84,354.24Z" transform="translate(-64 -224.42)"/>
      <path class="cls-2" d="M214.93,230.91S231.64,226.58,250,245c0,0-25.85-15.14-35.1-14.06" transform="translate(-64 -224.42)"/>
      <path class="cls-2" d="M201.81,236.33s14.72-9,37.67,3.21c0,0-29.14-6.94-37.67-3.21" transform="translate(-64 -224.42)"/>
      <path class="cls-2" d="M205.66,248.07s10.88-13.4,36.59-9.53c0,0-29.78,3.17-36.59,9.53" transform="translate(-64 -224.42)"/>
      <path class="cls-4" d="M252.75,293.46s-7.11,5.81-11.31,4.3c0,0,3.34-.75,3.45-1.83,0,0-5.39-.54-6.68,1.5,0,0,1.4-3.12,3.56-2.9a5.32,5.32,0,0,1-3.12-1.41s3.12,1.41,3.23.33c0,0-.75-3.34-2.91-3.55,0,0,3.34-.75,4.31.43,0,0-2.05-1.29-1.94-2.37,0,0,2,1.29,3.23.33s8.61.87,8.83-1.28c0,0,1.62-5.28,2.7-5.17l-.22,2.15s2.37-1.93,1.4-3.12c0,0,2.05,1.3,1.94,2.37a3.79,3.79,0,0,1-1.3,2.05s2.05,1.29,2.16.22a3.85,3.85,0,0,1-2.48,3,1.06,1.06,0,0,0,1,1.18S253.93,292.5,252.75,293.46Z" transform="translate(-64 -224.42)"/>
      <path class="cls-2" d="M233.57,297.43s22.5-17,25.3-22.66-8.53,24.76-8.53,24.76l-11.1,10s29.12-28,27.43-34.61l-8.86,26.25s16-23.13,14.58-27.35,1.45-.58,1.45-.58l-2,13.77-6.51,11.89-15.61,17.73-19,5.85Z" transform="translate(-64 -224.42)"/>
      <path class="cls-2" d="M318.28,291.56s24.52,10.26,28.49,14.38-14.1-18.6-14.1-18.6L320.16,281s33.29,18.08,33.53,23.66l-14.78-19.76s20.33,16.16,20.17,19.78,1.44.25,1.44.25l-5.38-10.78-8.92-8.57-18.56-11.88-18.46-1.82Z" transform="translate(-64 -224.42)"/>
    </g>
    <g id="Layer_7" data-name="Layer 7">
      <path class="cls-5" d="M295.47,365.06s-2.16,1.08-3.25,0-7.57-3.25-10.81,1.08,5.41,17.31,10.81,19.47,15.15-10.81,15.15-15.14S303,360.73,295.47,365.06Z" transform="translate(-64 -224.42)"/>
      <path class="cls-6" d="M291.14,374.8s1.08-8.66-6.49-5.41c0,0-1.08,2.16,2.17,2.16S291.14,374.8,291.14,374.8Z" transform="translate(-64 -224.42)"/>
      <path class="cls-6" d="M297.63,374.8s-1.08-6.5,4.33-6.5c0,0,3.25,1.09,0,3.25S298.72,372.63,297.63,374.8Z" transform="translate(-64 -224.42)"/>
      <path class="cls-6" d="M293.31,386.7a44.76,44.76,0,0,0,1.08-9.74v9.74Z" transform="translate(-64 -224.42)"/>
      <path class="cls-5" d="M290.76,401.84s0-5.41,1.09-6.49,17.3,0,17.3,0-2.16,26-17.3,27-19.48-24.89-19.48-24.89,16.23-3.24,17.31-2.16S290.76,401.84,290.76,401.84Z" transform="translate(-64 -224.42)"/>
    </g>
    <g id="Layer_8" data-name="Layer 8">
      <circle class="cls-7" cx="200.64" cy="109.81" r="8.11"/>
      <circle class="cls-7" cx="267.71" cy="111.97" r="8.11"/>
      <circle class="cls-8" cx="200.64" cy="109.81" r="5.95"/>
      <circle class="cls-8" cx="267.71" cy="111.97" r="5.95"/>
      <circle class="cls-9" cx="204.96" cy="107.64" r="2.7"/>
      <circle class="cls-9" cx="272.04" cy="109.81" r="2.7"/>
    </g>
  </g>
  <g id="Layer_3" data-name="Layer 3">
    <path d="M510.3,511.51a68.24,68.24,0,1,0-103.67-82.36H207.16a68.24,68.24,0,1,0-104.7,80,68.24,68.24,0,1,0,100,89.42H409A68.24,68.24,0,1,0,510.3,511.51Z" transform="translate(-64 -224.42)"/>
    <path class="cls-10" d="M498.54,525.63a68.24,68.24,0,1,0-103.67-82.36H195.39a68.24,68.24,0,1,0-104.69,80,68.24,68.24,0,1,0,100,89.42H397.22a68.24,68.24,0,1,0,101.32-87.07Z" transform="translate(-64 -224.42)"/>
  </g>
  <g id="Layer_11" data-name="Layer 11">
    <path class="cls-1" d="M228.41,446l29-3.61s18.42-21.92-7.16-22.79-28.84,14.48-28.84,14.48Z" transform="translate(-64 -224.42)"/>
    <path class="cls-1" d="M350.29,444.85l-24.92-.07s-17.6-17,4-20.41,25.75,9.46,25.75,9.46Z" transform="translate(-64 -224.42)"/>
  </g>
  <g id="Layer_13" data-name="Layer 13">
    <path class="cls-11" d="M225.63,435.25s-1.15,8.13-.92,10.21a40.65,40.65,0,0,0,.89-4.22,41.3,41.3,0,0,0-.23,6.33s.49-5.08,1-6.05c0,0,.26,6.18.17,7.19a26.58,26.58,0,0,0,.8-3.35s.15,2.42.57,2.46c0,0,.07-5.12.59-6.1a8.59,8.59,0,0,1,.13,3.09s.2-2.28.35-3.68.6,2.75.31,5.8a35.08,35.08,0,0,0,1.43-5.49,23,23,0,0,0,.79,4.68s.13-4.79.57-5.42a36.19,36.19,0,0,1,.09,7.53,14.31,14.31,0,0,0,1.34-5s-.25,2.79.32,3.49l.53-3.4s.86.08.36,5.16l.82-4,0,4.1.72-3a8.68,8.68,0,0,0,1,3.17l.39-4.07s.13,3.09,1,3.17l0-4.1a3.78,3.78,0,0,1,.66,2.11c-.1,1,.62-2,.29-3,0,0-.1,1,.33,1.05l.2-2s.24,0,.32.46a2.36,2.36,0,0,1,0,.6c-.09,1,.53-1,.2-2l.7-4.08.14-1,.34-2.44" transform="translate(-64 -224.42)"/>
    <path class="cls-12" d="M252.07,436.85s.17,6.77-.29,8.43a29.93,29.93,0,0,1-.36-3.53,28.67,28.67,0,0,1-.5,5.19s.11-4.2-.27-5.05c0,0-1,5-1,5.86a20.14,20.14,0,0,1-.38-2.82s-.41,1.95-.82,1.94c0,0,.52-4.18.13-5a6.31,6.31,0,0,0-.48,2.51s.08-1.89.1-3.05-.89,2.18-1,4.7a25.1,25.1,0,0,1-.74-4.62,16.61,16.61,0,0,1-1.28,3.73s.43-3.92.07-4.48a25.8,25.8,0,0,0-.94,6.14,10.47,10.47,0,0,1-.7-4.22s-.08,2.29-.7,2.81l-.12-2.83s-.82,0-.93,4.17l-.32-3.37-.5,3.35-.34-2.53a6.56,6.56,0,0,1-1.3,2.48l.09-3.35s-.47,2.5-1.29,2.48l.5-3.34a2.9,2.9,0,0,0-.87,1.65c0,.84-.36-1.69.07-2.51,0,0,0,.83-.43.82l0-1.68s-.23,0-.35.35a1.76,1.76,0,0,0-.08.48c0,.84-.39-.85.05-1.68l-.2-3.39,0-.81-.05-2" transform="translate(-64 -224.42)"/>
    <path class="cls-11" d="M244,434.16s-1.15,8.14-.92,10.22a43,43,0,0,0,.9-4.22,40.87,40.87,0,0,0-.24,6.33s.49-5.08,1-6.05c0,0,.27,6.17.17,7.19a26.58,26.58,0,0,0,.8-3.35s.15,2.42.57,2.46c0,0,.07-5.12.59-6.1a8.59,8.59,0,0,1,.13,3.09s.2-2.29.35-3.68.6,2.75.31,5.8a36,36,0,0,0,1.44-5.49,22.23,22.23,0,0,0,.79,4.68s.12-4.79.56-5.42a36.19,36.19,0,0,1,.09,7.53,14.31,14.31,0,0,0,1.34-5s-.25,2.78.32,3.49l.54-3.4s.85.08.36,5.16l.82-4,0,4.11.72-3a8.63,8.63,0,0,0,1,3.17l.39-4.06s.14,3.09,1,3.17l0-4.1a3.78,3.78,0,0,1,.66,2.11c-.1,1,.62-2,.29-3.05,0,0-.09,1,.33,1.06l.2-2s.24,0,.32.46a2.82,2.82,0,0,1,0,.6c-.1,1,.52-1,.19-2l.7-4.07.14-1,.34-2.44" transform="translate(-64 -224.42)"/>
    <ellipse class="cls-5" cx="168.51" cy="221.18" rx="2.7" ry="1.62"/>
    <ellipse class="cls-5" cx="175" cy="220.1" rx="2.7" ry="1.62"/>
    <ellipse class="cls-5" cx="181.49" cy="219.02" rx="2.7" ry="1.62"/>
    <ellipse class="cls-5" cx="187.98" cy="219.02" rx="2.7" ry="1.62"/>
    <ellipse class="cls-5" cx="264.79" cy="220.1" rx="2.7" ry="1.62"/>
    <path class="cls-11" d="M347.4,429.86s-.51-8.21-1.15-10.19a41.71,41.71,0,0,0,0,4.31,41.16,41.16,0,0,0-1-6.25s.54,5.07.22,6.13c0,0-1.49-6-1.6-7a27.27,27.27,0,0,0-.12,3.45s-.63-2.35-1.05-2.3c0,0,1,5,.65,6.09a8.48,8.48,0,0,1-.75-3s.26,2.28.4,3.68-1.15-2.57-1.47-5.62a35.33,35.33,0,0,0-.3,5.66,22.53,22.53,0,0,0-1.72-4.42s.84,4.71.53,5.42a36.69,36.69,0,0,1-1.6-7.36,14.53,14.53,0,0,0-.31,5.17s-.31-2.78-1-3.35l.16,3.44s-.85.09-1.39-5v4.11l-.86-4-.1,3.09a8.66,8.66,0,0,0-1.6-2.91l.43,4.06s-.75-3-1.6-2.9l.86,4a3.8,3.8,0,0,1-1.07-1.94c-.11-1-.21,2.08.33,3,0,0-.11-1-.54-1l.22,2s-.24,0-.41-.39a2.67,2.67,0,0,1-.13-.58c-.1-1-.31,1.06.22,2l.13,4.13.06,1,.16,2.46" transform="translate(-64 -224.42)"/>
    <path class="cls-12" d="M231.38,428.93s-2.86-6.13-3.12-7.84a30.81,30.81,0,0,1,1.76,3.09,28.68,28.68,0,0,1-1.63-4.95s1.58,3.89,2.28,4.51c0,0-1.14-5-1.46-5.75a19,19,0,0,1,1.48,2.43s-.4-2,0-2.11c0,0,1.2,4,1.89,4.66a6.09,6.09,0,0,0-.57-2.49s.69,1.76,1.14,2.83-.06-2.36-1-4.69a25.28,25.28,0,0,1,2.53,3.94,16.86,16.86,0,0,1-.32-3.93s1.18,3.76,1.73,4.13a26,26,0,0,0-1.6-6,10.46,10.46,0,0,1,2.34,3.58s-.85-2.13-.49-2.85l1.25,2.55s.76-.31-.83-4.2l1.65,3-.89-3.27,1.33,2.18a6.63,6.63,0,0,1,.19-2.8l1.26,3.11s-.56-2.48.19-2.79l.89,3.26a3,3,0,0,0,.13-1.86c-.32-.78,1,1.4.94,2.33,0,0-.31-.77.07-.93l.63,1.56s.21-.09.19-.46a1.61,1.61,0,0,0-.13-.47c-.31-.78.7.62.64,1.55l1.54,3,.34.73.86,1.84" transform="translate(-64 -224.42)"/>
    <path class="cls-12" d="M263.38,432.1s3.22-5.94,3.62-7.62c0,0-1.65,2.37-1.91,3a32.23,32.23,0,0,0,2-4.82s-1.83,3.78-2.52,4.37c0,0,1.53-4.85,1.89-5.61a21.91,21.91,0,0,0-1.59,2.35s.56-1.91.23-2.07c0,0-1.5,3.93-2.19,4.53a6.76,6.76,0,0,1,.76-2.43s-.8,1.71-1.31,2.75.28-2.31,1.38-4.58a27.91,27.91,0,0,0-2.71,3.8,17.71,17.71,0,0,0,.69-3.85s-1.45,3.66-2,4a28.39,28.39,0,0,1,2.05-5.85,11.43,11.43,0,0,0-2.49,3.46s1-2.08.73-2.79l-1.39,2.46s-.67-.32,1.16-4.1L258,422l1.13-3.19-1.43,2.11a6.89,6.89,0,0,0,.1-2.75l-1.46,3s.76-2.42.1-2.75l-1.13,3.19a3.06,3.06,0,0,1,.07-1.84c.36-.75-1.07,1.36-1.1,2.27,0,0,.36-.75,0-.91l-.73,1.51s-.19-.09-.12-.46a1.72,1.72,0,0,1,.15-.46c.37-.76-.69.59-.73,1.51l-1.71,2.94-.38.71-1,1.78" transform="translate(-64 -224.42)"/>
    <path class="cls-12" d="M223.36,437.12S219.47,429,219,426.75a43.73,43.73,0,0,1,2.33,4.11,43.83,43.83,0,0,1-2.32-6.55s2.18,5.15,3.06,6c0,0-1.73-6.55-2.17-7.58a29.86,29.86,0,0,1,2,3.24s-.64-2.59-.2-2.77c0,0,1.75,5.33,2.62,6.18a9.23,9.23,0,0,0-.86-3.28s.95,2.33,1.57,3.74-.25-3.08-1.56-6.18a37.25,37.25,0,0,1,3.32,5.26,24.34,24.34,0,0,1-.68-5.16s1.69,5,2.38,5.48a39,39,0,0,0-2.36-7.92,15.59,15.59,0,0,1,3.06,4.78s-1.17-2.83-.8-3.76l1.69,3.38s.88-.37-1.3-5.52l2.19,3.93-1.31-4.31,1.75,2.91a9.35,9.35,0,0,1,0-3.66l1.75,4.13s-.87-3.28,0-3.66l1.31,4.31a4.18,4.18,0,0,0,0-2.43c-.44-1,1.31,1.87,1.31,3.09,0,0-.44-1,0-1.22l.88,2.06s.25-.11.19-.59a2.37,2.37,0,0,0-.19-.63c-.43-1,.88.84.88,2.06l2.07,4,.46,1,1.17,2.44" transform="translate(-64 -224.42)"/>
    <ellipse class="cls-5" cx="271.28" cy="220.1" rx="2.7" ry="1.62"/>
    <ellipse class="cls-5" cx="277.77" cy="220.1" rx="2.7" ry="1.62"/>
    <ellipse class="cls-5" cx="284.26" cy="220.1" rx="2.7" ry="1.62"/>
    <path class="cls-2" d="M223.32,432s-.91,10.22.17,12.76c0,0,1.36-4.31,1.22-5.33,0,0-.14,5.33.94,7.87,0,0,0-6.35,1.08-7.62,0,0,2.16,7.62,2.16,8.89,0,0,1.34-3.42,1.21-4.25,0,0,1,3,2,3,0,0-1.09-6.35,0-7.62a6.13,6.13,0,0,1,1.08,3.81s-.07-2.86,0-4.6,2.2,3.33,2.2,7.14c0,0,2.39-5,2.27-7a18.21,18.21,0,0,0,3.13,5.69s-.86-5.94.11-6.78a23.86,23.86,0,0,1,2.05,9.32A10.55,10.55,0,0,0,245.1,441s.05,3.47,1.64,4.28l.52-4.28s2.16,0,2.16,6.35l1.08-5.08,1.08,5.08,1.08-3.81a9.06,9.06,0,0,0,3.24,3.81v-5.08s1.08,3.81,3.24,3.81L258.06,441s2.16,1.27,2.16,2.54,1.08-2.54,0-3.81c0,0,0,1.27,1.08,1.27v-2.54a1.1,1.1,0,0,1,.91.54,1.43,1.43,0,0,1,.17.73c0,1.27,1.08-1.27,0-2.54l.77-5.13.1-1.21.27-3.07" transform="translate(-64 -224.42)"/>
    <polygon class="cls-2" points="162.19 203.27 162.56 208.74 161.06 209.3 162.19 203.27"/>
    <polygon class="cls-2" points="160.81 204.9 160.56 207.79 158.42 204.52 160.81 204.9"/>
    <polygon class="cls-2" points="163.41 201.28 162.56 209.82 165.8 201.17 165.8 197.92 163.41 201.28"/>
    <polygon class="cls-2" points="161.47 201.17 161.47 209.82 162.92 202.27 161.47 201.17"/>
    <path class="cls-2" d="M232,422.34v11.9s-2.16-10.82-1.08-11.9S232,422.34,232,422.34Z" transform="translate(-64 -224.42)"/>
    <polygon class="cls-2" points="164.72 201.17 166.5 212.37 166.62 198.94 164.72 201.17"/>
    <path class="cls-11" d="M241.2,430.94s-.5-8.21-1.15-10.19a42.25,42.25,0,0,0,0,4.31,41.35,41.35,0,0,0-1-6.25s.54,5.08.22,6.14c0,0-1.5-6-1.61-7a27.63,27.63,0,0,0-.11,3.45s-.63-2.34-1.06-2.3c0,0,1,5,.65,6.09a8.76,8.76,0,0,1-.75-3s.27,2.28.41,3.68-1.15-2.57-1.47-5.62a35.1,35.1,0,0,0-.31,5.66,22.89,22.89,0,0,0-1.71-4.42s.84,4.71.53,5.43a36.09,36.09,0,0,1-1.6-7.37,14.53,14.53,0,0,0-.31,5.17s-.32-2.77-1-3.35l.16,3.44s-.85.09-1.39-5v4.1l-.85-4-.11,3.09a8.57,8.57,0,0,0-1.6-2.91l.44,4.06s-.75-3-1.6-2.91l.85,4a3.74,3.74,0,0,1-1.06-1.94c-.11-1-.21,2.08.32,3.05,0,0-.11-1-.53-1l.21,2s-.24,0-.4-.39a2.18,2.18,0,0,1-.13-.58c-.11-1-.32,1.06.22,2l.13,4.13.06,1,.15,2.47" transform="translate(-64 -224.42)"/>
    <path class="cls-2" d="M223.92,436.46s-3.14-6-3.07-7.86a16.85,16.85,0,0,1,2.12,2.94s-1.41-3.23-1.34-5.07c0,0,1.58,3.89,2.61,4.38a59.53,59.53,0,0,0-.8-6,11.86,11.86,0,0,1,1.85,2.28s-.12-2.08.59-2.36c0,0,.87,4.17,1.89,4.66a3.89,3.89,0,0,0-.24-2.62s.67,1.77,1.13,2.83.6-2.62-.35-5c0,0,2.82,2.45,3.23,3.66a11.67,11.67,0,0,1,.62-4.32s.92,3.87,1.76,4.13a15,15,0,0,0-1-6.26,6.73,6.73,0,0,1,3,3.32s-.83-2.14,0-3.06l1.41,2.48s1.41-.57-.17-4.46l2,2.82-.56-3.4,1.66,2.05a6.07,6.07,0,0,1,1.17-3.2l1.27,3.12s-.25-2.63,1.17-3.2l.56,3.4s1.09-1.35.78-2.13,1.34,1.27.95,2.33c0,0-.32-.78.39-1.06l.63,1.55a.79.79,0,0,0,.46-.57.9.9,0,0,0-.07-.49c-.32-.78,1,.49.63,1.55l1.78,2.94.37.72.94,1.8" transform="translate(-64 -224.42)"/>
    <path class="cls-2" d="M257.1,429.15s.9-8.16.61-10.23a41.44,41.44,0,0,0-.77,4.24,41.09,41.09,0,0,0,.05-6.33s-.34,5.09-.83,6.08c0,0-.45-6.17-.38-7.19a28.31,28.31,0,0,0-.71,3.38s-.21-2.41-.64-2.44c0,0,.09,5.12-.41,6.11a8.63,8.63,0,0,1-.22-3.09s-.13,2.3-.23,3.7-.69-2.73-.49-5.79a35.55,35.55,0,0,0-1.27,5.52,22.31,22.31,0,0,0-.93-4.64s0,4.78-.41,5.43a36.3,36.3,0,0,1-.31-7.53,14.35,14.35,0,0,0-1.19,5s.16-2.79-.42-3.47l-.44,3.41s-.85-.05-.51-5.15l-.7,4.05-.16-4.1-.63,3A8.71,8.71,0,0,0,245,416l-.27,4.08s-.23-3.09-1.08-3.14l.15,4.1a3.82,3.82,0,0,1-.71-2.09c.06-1-.57,2-.21,3,0,0,.07-1-.36-1l-.13,2s-.24,0-.33-.45a2.14,2.14,0,0,1,0-.6c.07-1-.49,1-.14,2l-.57,4.1-.11,1-.27,2.45" transform="translate(-64 -224.42)"/>
    <path class="cls-2" d="M263.11,434.86s3.94-7.21,4.46-9.23a41,41,0,0,0-2.32,3.63,40.47,40.47,0,0,0,2.45-5.84s-2.25,4.58-3.08,5.31c0,0,1.93-5.87,2.38-6.79a27.32,27.32,0,0,0-1.94,2.85s.72-2.31.34-2.5c0,0-1.87,4.77-2.7,5.5a8.52,8.52,0,0,1,1-2.94s-1,2.07-1.62,3.32.41-2.78,1.76-5.53a34.94,34.94,0,0,0-3.28,4.62,23,23,0,0,0,.91-4.65s-1.8,4.43-2.45,4.87a36.53,36.53,0,0,1,2.58-7.08,14.44,14.44,0,0,0-3,4.21s1.21-2.52.93-3.38l-1.7,3s-.77-.38,1.49-5l-2.19,3.48,1.42-3.86-1.74,2.56a8.56,8.56,0,0,0,.2-3.31l-1.8,3.66s1-2.93.2-3.31l-1.42,3.85a3.8,3.8,0,0,1,.13-2.21c.46-.92-1.28,1.64-1.35,2.75,0,0,.45-.92.07-1.11l-.9,1.84s-.22-.11-.13-.55a1.73,1.73,0,0,1,.2-.56c.45-.91-.84.73-.9,1.83L249,427.9l-.46.86-1.19,2.16" transform="translate(-64 -224.42)"/>
    <path class="cls-2" d="M358.78,435.82s2.34-7.88,2.43-10a39.9,39.9,0,0,0-1.51,4,41.33,41.33,0,0,0,1.17-6.23s-1.24,4.95-1.9,5.84c0,0,.66-6.15.9-7.14a26.2,26.2,0,0,0-1.29,3.2s.22-2.42-.2-2.52c0,0-.82,5.05-1.49,5.94a8.89,8.89,0,0,1,.33-3.08s-.53,2.24-.88,3.6-.2-2.81.55-5.78a36,36,0,0,0-2.24,5.2,22.06,22.06,0,0,0-.09-4.73s-.82,4.71-1.36,5.27a36.14,36.14,0,0,1,1-7.46,14.26,14.26,0,0,0-2.07,4.74s.66-2.71.2-3.49l-1,3.28s-.83-.2.41-5.16l-1.41,3.86.58-4.06L349.75,424a8.66,8.66,0,0,0-.5-3.28l-1,4s.33-3.07-.5-3.28l-.58,4.06a3.77,3.77,0,0,1-.33-2.18c.24-1-.91,1.87-.75,3,0,0,.25-1-.16-1.1l-.5,2s-.23-.06-.25-.5a2.53,2.53,0,0,1,.08-.59c.25-1-.66.88-.49,2l-1.3,3.93-.28.93-.7,2.37" transform="translate(-64 -224.42)"/>
    <path class="cls-11" d="M334.48,435.23s-1.55-8.6-2.44-10.62c0,0,.28,3.71.52,4.55a46.3,46.3,0,0,0-1.83-6.48s1.19,5.29,1,6.44c0,0-2.25-6.16-2.49-7.22a29.68,29.68,0,0,0,.33,3.65s-.92-2.4-1.34-2.31c0,0,1.6,5.2,1.42,6.35a9.5,9.5,0,0,1-1.13-3.08s.56,2.37.87,3.83-1.47-2.59-2.18-5.76a39,39,0,0,0,.42,6,25.07,25.07,0,0,0-2.27-4.48s1.44,4.88,1.22,5.66a40.68,40.68,0,0,1-2.53-7.59,16.17,16.17,0,0,0,.35,5.48s-.67-2.89-1.43-3.42l.59,3.61s-.83.18-2-5.11l.53,4.33-1.37-4.14.29,3.27a9.5,9.5,0,0,0-2-2.9l.95,4.24s-1.13-3.09-2-2.9l1.36,4.14a4.18,4.18,0,0,1-1.31-1.93c-.23-1.06.06,2.21.71,3.18,0,0-.24-1.06-.65-1l.47,2.12s-.23.05-.45-.37a2.59,2.59,0,0,1-.2-.6c-.24-1.06-.19,1.15.47,2.12l.66,4.34.18,1,.47,2.58" transform="translate(-64 -224.42)"/>
    <path class="cls-2" d="M338.24,434.56s.9-8.17.61-10.23a41.44,41.44,0,0,0-.77,4.24,41.09,41.09,0,0,0,.05-6.33s-.34,5.09-.83,6.08c0,0-.45-6.17-.38-7.19a28.31,28.31,0,0,0-.71,3.38s-.22-2.42-.64-2.44c0,0,.09,5.12-.41,6.11a8.63,8.63,0,0,1-.22-3.09s-.13,2.3-.24,3.7-.68-2.74-.48-5.79a35.55,35.55,0,0,0-1.27,5.52,22.31,22.31,0,0,0-.93-4.64s0,4.78-.41,5.43a36.3,36.3,0,0,1-.31-7.53,14.35,14.35,0,0,0-1.19,5s.16-2.79-.43-3.47l-.43,3.41s-.85-.06-.51-5.15l-.7,4.05-.16-4.1-.63,3a8.71,8.71,0,0,0-1.07-3.14l-.28,4.08s-.22-3.09-1.07-3.14l.15,4.1a3.83,3.83,0,0,1-.71-2.1c.06-1-.57,2-.21,3.06,0,0,.07-1-.36-1.05l-.13,2s-.24,0-.33-.45a2.14,2.14,0,0,1,0-.6c.07-1-.5,1-.14,2l-.57,4.09-.11,1-.27,2.45" transform="translate(-64 -224.42)"/>
    <path class="cls-2" d="M319.61,432s-.91,10.22.17,12.76c0,0,1.35-4.31,1.21-5.33,0,0-.13,5.33.95,7.87,0,0,0-6.35,1.08-7.62,0,0,2.16,7.62,2.16,8.89,0,0,1.34-3.42,1.21-4.25,0,0,.95,3,2,3,0,0-1.08-6.35,0-7.62a6.13,6.13,0,0,1,1.08,3.81s-.06-2.86,0-4.6,2.19,3.33,2.19,7.14c0,0,2.39-5,2.28-7a18.06,18.06,0,0,0,3.12,5.69s-.86-5.94.11-6.78a23.86,23.86,0,0,1,2.05,9.32,10.55,10.55,0,0,0,2.16-6.35s.05,3.47,1.65,4.28l.51-4.28s2.16,0,2.16,6.35l1.08-5.08,1.08,5.08,1.08-3.81a9.06,9.06,0,0,0,3.24,3.81v-5.08s1.08,3.81,3.24,3.81L354.34,441s2.16,1.27,2.16,2.54,1.08-2.54,0-3.81c0,0,0,1.27,1.08,1.27v-2.54a1.13,1.13,0,0,1,.92.54,1.44,1.44,0,0,1,.16.73c0,1.27,1.08-1.27,0-2.54l.77-5.13.11-1.21.27-3.07" transform="translate(-64 -224.42)"/>
    <path class="cls-11" d="M335.5,435.26s-.51-8.2-1.15-10.18a41.71,41.71,0,0,0,0,4.31,41.16,41.16,0,0,0-1-6.25s.54,5.07.22,6.13c0,0-1.5-6-1.6-7a27.18,27.18,0,0,0-.12,3.44s-.63-2.34-1-2.29c0,0,1,5,.65,6.09a8.48,8.48,0,0,1-.75-3s.26,2.28.4,3.68-1.15-2.58-1.47-5.62a35.33,35.33,0,0,0-.3,5.66,22.53,22.53,0,0,0-1.72-4.42s.84,4.71.53,5.42a36.69,36.69,0,0,1-1.6-7.36,14.53,14.53,0,0,0-.31,5.17s-.31-2.78-1-3.35l.16,3.44s-.85.09-1.39-5v4.11l-.86-4-.1,3.09a8.66,8.66,0,0,0-1.6-2.91l.43,4.06s-.75-3-1.6-2.91l.86,4a3.85,3.85,0,0,1-1.07-1.94c-.11-1-.21,2.08.32,3,0,0-.1-1-.53-1l.22,2s-.24,0-.41-.39a2.67,2.67,0,0,1-.13-.58c-.1-1-.31,1.06.22,2l.13,4.13.06,1,.16,2.46" transform="translate(-64 -224.42)"/>
    <path class="cls-11" d="M321.92,434.16s-1.15,8.14-.92,10.22c0,0,.86-3.4.89-4.22a40.87,40.87,0,0,0-.24,6.33s.49-5.08,1-6.05c0,0,.26,6.17.16,7.19a28.13,28.13,0,0,0,.81-3.35s.14,2.42.57,2.46c0,0,.06-5.12.59-6.1a8.89,8.89,0,0,1,.13,3.09s.19-2.29.34-3.68.61,2.75.31,5.8a36,36,0,0,0,1.44-5.49,22.23,22.23,0,0,0,.79,4.68s.12-4.79.57-5.42a35.81,35.81,0,0,1,.08,7.53,14.44,14.44,0,0,0,1.35-5s-.25,2.78.31,3.49l.54-3.4s.85.08.36,5.16l.82-4,0,4.11.72-3a8.63,8.63,0,0,0,1,3.17l.4-4.06s.13,3.09,1,3.17l0-4.1a3.81,3.81,0,0,1,.65,2.11c-.1,1,.63-2,.3-3.05,0,0-.1,1,.33,1.06l.19-2s.24,0,.32.46a2.28,2.28,0,0,1,0,.6c-.1,1,.52-1,.2-2l.7-4.07.13-1,.35-2.44" transform="translate(-64 -224.42)"/>
    <path class="cls-2" d="M319.61,436.32s-.91,7.57.17,9.45c0,0,1.35-3.19,1.21-3.95,0,0-.13,3.95.95,5.83,0,0,0-4.7,1.08-5.64,0,0,2.16,5.64,2.16,6.58,0,0,1.34-2.53,1.21-3.15,0,0,.95,2.21,2,2.21,0,0-1.08-4.7,0-5.64a3.84,3.84,0,0,1,1.08,2.82s-.06-2.12,0-3.41,2.19,2.47,2.19,5.29c0,0,2.39-3.73,2.28-5.16a12.62,12.62,0,0,0,3.12,4.22s-.86-4.4.11-5a14.12,14.12,0,0,1,2.05,6.9,6.82,6.82,0,0,0,2.16-4.7s.05,2.57,1.65,3.16l.51-3.16s2.16,0,2.16,4.7l1.08-3.76,1.08,3.76,1.08-2.82a7.52,7.52,0,0,0,3.24,2.82v-3.76s1.08,2.82,3.24,2.82L354.34,443s2.16.94,2.16,1.88,1.08-1.88,0-2.82a1,1,0,0,0,1.08.94v-1.88a1.3,1.3,0,0,1,.92.39.9.9,0,0,1,.16.55c0,.94,1.08-.94,0-1.88l.77-3.8.11-.9.27-2.27" transform="translate(-64 -224.42)"/>
    <path class="cls-2" d="M335.94,435.69s1-8.15.74-10.22a42,42,0,0,0-.81,4.23,40.84,40.84,0,0,0,.12-6.34s-.4,5.09-.91,6.08c0,0-.37-6.18-.29-7.19a26.85,26.85,0,0,0-.74,3.36s-.19-2.41-.62-2.45c0,0,0,5.12-.48,6.11a8.49,8.49,0,0,1-.18-3.09s-.16,2.29-.28,3.69-.66-2.74-.42-5.79a35.8,35.8,0,0,0-1.34,5.5,22.53,22.53,0,0,0-.87-4.65s0,4.78-.47,5.42a36.19,36.19,0,0,1-.22-7.53,14.31,14.31,0,0,0-1.26,5s.2-2.78-.37-3.47l-.48,3.41s-.85-.07-.45-5.16l-.75,4-.1-4.11-.67,3a8.66,8.66,0,0,0-1-3.15l-.32,4.07s-.19-3.09-1-3.16l.11,4.11a3.81,3.81,0,0,1-.7-2.1c.08-1-.58,2-.24,3.05,0,0,.08-1-.34-1.05l-.17,2s-.24,0-.32-.46a2.13,2.13,0,0,1,0-.59c.08-1-.51,1-.16,2l-.63,4.08-.12,1-.3,2.45" transform="translate(-64 -224.42)"/>
    <path class="cls-11" d="M349.56,433.1s-.51-8.2-1.15-10.19a42.25,42.25,0,0,0,0,4.31,41.35,41.35,0,0,0-1-6.25s.53,5.08.22,6.14c0,0-1.5-6-1.61-7a27.63,27.63,0,0,0-.11,3.45s-.63-2.34-1.06-2.29c0,0,1,5,.65,6.09a8.76,8.76,0,0,1-.75-3s.27,2.28.4,3.67-1.14-2.57-1.47-5.61a35.33,35.33,0,0,0-.3,5.66,22.89,22.89,0,0,0-1.71-4.42s.84,4.71.53,5.42a35.89,35.89,0,0,1-1.6-7.36,14.22,14.22,0,0,0-.31,5.16s-.32-2.77-1-3.35l.16,3.44s-.85.09-1.39-5v4.1l-.86-4-.1,3.09a8.66,8.66,0,0,0-1.6-2.91l.43,4.06s-.74-3-1.6-2.91l.86,4a3.79,3.79,0,0,1-1.06-1.94c-.11-1-.21,2.07.32,3,0,0-.11-1-.53-1l.21,2s-.24,0-.4-.39a1.78,1.78,0,0,1-.13-.58c-.11-1-.32,1.06.21,2l.14,4.13.06,1,.15,2.46" transform="translate(-64 -224.42)"/>
    <path class="cls-2" d="M357.7,436.9s2.34-7.88,2.42-10a40.3,40.3,0,0,0-1.5,4,41.06,41.06,0,0,0,1.17-6.23s-1.24,4.95-1.9,5.84c0,0,.65-6.15.9-7.14a26.89,26.89,0,0,0-1.29,3.2s.21-2.42-.2-2.52c0,0-.83,5.05-1.49,5.94a8.53,8.53,0,0,1,.33-3.07s-.53,2.23-.89,3.59-.19-2.81.56-5.78a34.66,34.66,0,0,0-2.24,5.21,22.15,22.15,0,0,0-.09-4.74s-.83,4.71-1.36,5.27a36.14,36.14,0,0,1,1-7.46,14.26,14.26,0,0,0-2.07,4.74s.66-2.71.2-3.49l-1,3.29s-.83-.21.41-5.16l-1.41,3.85.58-4.06-1.16,2.87a8.7,8.7,0,0,0-.5-3.29l-1,4s.33-3.07-.5-3.28l-.58,4.07a3.87,3.87,0,0,1-.34-2.19c.25-1-.91,1.87-.74,3,0,0,.25-1-.17-1.1l-.49,2s-.24-.05-.25-.5a2.53,2.53,0,0,1,.08-.59c.25-1-.66.89-.49,2l-1.3,3.93-.28.93-.7,2.37" transform="translate(-64 -224.42)"/>
    <path class="cls-2" d="M344.72,440.15s2.34-7.88,2.42-10c0,0-1.36,3.23-1.51,4a40.72,40.72,0,0,0,1.18-6.22s-1.24,4.95-1.91,5.83c0,0,.66-6.14.91-7.13a26.61,26.61,0,0,0-1.29,3.19s.21-2.41-.2-2.52c0,0-.83,5.06-1.49,5.95a8.58,8.58,0,0,1,.33-3.08s-.54,2.23-.89,3.59-.19-2.81.55-5.78a35.39,35.39,0,0,0-2.23,5.21,22.15,22.15,0,0,0-.09-4.74s-.83,4.72-1.36,5.28a35.34,35.34,0,0,1,1-7.46,14.26,14.26,0,0,0-2.07,4.74s.66-2.71.2-3.49l-1,3.28s-.83-.21.41-5.16l-1.41,3.86.58-4.07-1.16,2.87a8.66,8.66,0,0,0-.5-3.28l-1,4s.33-3.07-.5-3.28l-.57,4.06a3.78,3.78,0,0,1-.34-2.19c.25-1-.91,1.88-.74,3,0,0,.25-1-.17-1.09l-.49,2s-.24-.06-.25-.51a2.46,2.46,0,0,1,.08-.58c.25-1-.66.88-.5,2l-1.29,3.92-.28.94-.7,2.36" transform="translate(-64 -224.42)"/>
    <path class="cls-2" d="M350.74,434.46s2.63-9,2.78-11.41c0,0-1.48,3.72-1.66,4.64a53.32,53.32,0,0,0,1.4-7.12s-1.42,5.67-2.12,6.7c0,0,.88-7,1.16-8.15a34.55,34.55,0,0,0-1.41,3.68s.3-2.75-.12-2.85c0,0-1,5.77-1.7,6.8a11.3,11.3,0,0,1,.43-3.5s-.61,2.55-1,4.11-.1-3.19.75-6.59a46.58,46.58,0,0,0-2.43,6,28.32,28.32,0,0,0,.07-5.39s-1,5.39-1.55,6.05a47.26,47.26,0,0,1,1.29-8.52,18.53,18.53,0,0,0-2.25,5.46s.76-3.11.33-4l-1.16,3.77s-.83-.2.59-5.88l-1.55,4.44.72-4.64-1.27,3.3a10.65,10.65,0,0,0-.39-3.72l-1.13,4.54s.43-3.51-.4-3.72l-.72,4.64a4.71,4.71,0,0,1-.26-2.47c.28-1.14-1,2.16-.85,3.4,0,0,.28-1.13-.13-1.24l-.57,2.27s-.24-.06-.23-.56a3,3,0,0,1,.1-.68c.28-1.13-.7,1-.57,2.27l-1.44,4.51-.32,1.08-.78,2.71" transform="translate(-64 -224.42)"/>
  </g>
  <g id="Layer_12" data-name="Layer 12">
    <text class="cls-13" transform="translate(93.85 304.09)">Chico’s</text>
    <text class="cls-14" transform="translate(73.37 364.87)">Adventures</text>
  </g>
</svg>
