<?xml version="1.0" encoding="utf-8"?>
<!-- Generator: Adobe Illustrator 22.1.0, SVG Export Plug-In . SVG Version: 6.00 Build 0)  -->
<svg version="1.1" id="Layer_15" xmlns="http://www.w3.org/2000/svg" xmlns:xlink="http://www.w3.org/1999/xlink" x="0px" y="0px"
	 viewBox="0 0 224.3 124.5" style="enable-background:new 0 0 224.3 124.5;" xml:space="preserve">
<style type="text/css">
	.st0{fill:none;stroke:#48D8FF;stroke-width:4;stroke-miterlimit:10;}
	.st1{font-family:'Chewy-Regular';}
	.st2{font-size:36px;}
</style>
<title>hover</title>
<path class="st0" d="M209.1,60.8c14.2-10.6,16.9-30.5,6-44.4S183.9,0,169.6,10.6c-4.2,3.2-7.6,7.3-9.8,12H65
	C58.2,6.5,39.3-1.3,22.7,5.3s-24.6,25-17.8,41.2c2.2,5.2,5.7,9.8,10.3,13.2C1,70.4-1.7,90.2,9.2,104.1s31.3,16.5,45.5,5.8
	c3.2-2.4,5.9-5.4,8-8.7H161c8.7,15.3,28.4,20.9,44.1,12.4s21.4-27.7,12.7-43C215.6,66.8,212.7,63.5,209.1,60.8L209.1,60.8z"/>
<text transform="matrix(1 0 0 1 22 70.25)" class="st1 st2">Coming Soon!</text>
</svg>
