<svg id="Layer_1" data-name="Layer 1" xmlns="http://www.w3.org/2000/svg" viewBox="0 0 94.17 94.17">
  <defs>
    <style>
      .cls-1 {
        fill: #d1d3d4;
      }

      .cls-2 {
        fill: #808285;
      }
    </style>
  </defs>
  <title>email</title>
  <circle class="cls-1" cx="47.08" cy="47.08" r="47.08"/>
  <g>
    <path class="cls-2" d="M131,434.38v0l.19.07a3.84,3.84,0,0,0,1.05.36l16,5.59h0a4.48,4.48,0,0,0,5.05,0l16.83-5.6a4.52,4.52,0,0,0,.62-.21l.15-.05v0a3.82,3.82,0,0,0-1.68-7.25H133a3.82,3.82,0,0,0-3.82,3.82,3.81,3.81,0,0,0,1.87,3.28Z" transform="translate(-103.87 -392.64)"/>
    <path class="cls-2" d="M169.19,436.69a3.61,3.61,0,0,0-.94.12l0,0-15.41,5.55a3.81,3.81,0,0,1-2.38.84,3.74,3.74,0,0,1-2.21-.72h0l-12.71-4.9,0,0a3.81,3.81,0,0,0-6.13,3l.52,13.94a3.84,3.84,0,0,0,3.82,3.82l35.37.17a3.82,3.82,0,0,0,3.82-3.82l.14-14.21A3.82,3.82,0,0,0,169.19,436.69Z" transform="translate(-103.87 -392.64)"/>
  </g>
</svg>
