<svg xmlns="http://www.w3.org/2000/svg" xmlns:xlink="http://www.w3.org/1999/xlink" viewBox="0 0 595.46 488.69">
  <defs>
    <style>
      .cls-1 {
        fill: url(#linear-gradient);
      }

      .cls-2 {
        fill: url(#linear-gradient-2);
      }

      .cls-3 {
        fill: url(#linear-gradient-3);
      }

      .cls-4 {
        fill: url(#linear-gradient-4);
      }

      .cls-5 {
        fill: url(#linear-gradient-5);
      }

      .cls-6 {
        fill: #8dc63f;
      }

      .cls-7 {
        fill: #603913;
      }

      .cls-8 {
        fill: #42b649;
      }

      .cls-9 {
        fill: #de88b9;
      }
    </style>
    <linearGradient id="linear-gradient" x1="473.76" y1="393.01" x2="474.9" y2="313.76" gradientUnits="userSpaceOnUse">
      <stop offset="0" stop-color="#fff"/>
      <stop offset="1" stop-color="#bae5f5"/>
    </linearGradient>
    <linearGradient id="linear-gradient-2" x1="459.89" y1="539.71" x2="462.9" y2="329.47" xlink:href="#linear-gradient"/>
    <linearGradient id="linear-gradient-3" x1="198.88" y1="485.94" x2="201.14" y2="328.11" xlink:href="#linear-gradient"/>
    <linearGradient id="linear-gradient-4" x1="583.7" y1="645.47" x2="586.85" y2="425.75" gradientTransform="matrix(-1, 0, 0, 1, 735.03, 0)" xlink:href="#linear-gradient"/>
    <linearGradient id="linear-gradient-5" x1="296.51" y1="864.37" x2="300.91" y2="556.45" gradientUnits="userSpaceOnUse">
      <stop offset="0" stop-color="#2b2010"/>
      <stop offset="0.49" stop-color="#006838"/>
    </linearGradient>
  </defs>
  <title>footer</title>
  <g id="Layer_1" data-name="Layer 1">
    <path class="cls-1" d="M506.59,369.5a8.87,8.87,0,0,0-4.23,1.06,12.32,12.32,0,0,0-18.47-7,17.48,17.48,0,0,0-32.48,1.6,12.33,12.33,0,1,0-6.63,22.73l19-.15a17.88,17.88,0,0,0,4.23.52,17.49,17.49,0,0,0,4.49-.59l34.13-.27a8.95,8.95,0,1,0,0-17.89Z" transform="translate(0.19 -353.28)"/>
    <path class="cls-2" d="M569.52,480.17a22.66,22.66,0,0,0-13.28,4.28,33.53,33.53,0,0,0-46.08-22.14c-2.36-15.57-16.12-27.53-32.74-27.53-16.82,0-30.69,12.22-32.82,28.05a33.5,33.5,0,0,0-52.07,21.55,22.75,22.75,0,0,0-34.46,13.22,16.75,16.75,0,1,0-12.83,27.52l28.23.07a22.87,22.87,0,0,0,13.08,0l129.53.32a33.65,33.65,0,0,0,15.29,0l38.15.09a22.75,22.75,0,1,0,0-45.5Zm-209,35a23.25,23.25,0,0,0,1.3,1.93l-3.47,1.68A16.49,16.49,0,0,0,360.56,515.13Z" transform="translate(0.19 -353.28)"/>
    <path class="cls-3" d="M264.26,439.12a17.67,17.67,0,0,0-8.42,2.11,24.55,24.55,0,0,0-36.79-14,34.81,34.81,0,0,0-64.69,3.2,24.56,24.56,0,1,0-13.21,45.26l37.77-.3a34.87,34.87,0,0,0,17.37-.14l68-.54a17.82,17.82,0,1,0,0-35.63Z" transform="translate(0.19 -353.28)"/>
    <path class="cls-4" d="M13,607A23.78,23.78,0,0,0,36.75,630.8l39.87-.1a35.52,35.52,0,0,0,7.91.91,35.16,35.16,0,0,0,8.07-1L228,630.32a23.75,23.75,0,0,0,13.67,0l29.49-.07a17.51,17.51,0,1,0-13.4-28.76,23.77,23.77,0,0,0-36-13.81,35,35,0,0,0-54.42-22.53c-2.23-16.54-16.73-29.31-34.3-29.31-17.38,0-31.76,12.49-34.22,28.77a35,35,0,0,0-48.16,23.14A23.77,23.77,0,0,0,13,607Zm244.43,16.54-3.63-1.77a23.49,23.49,0,0,0,1.35-2A17.44,17.44,0,0,0,257.41,623.56Z" transform="translate(0.19 -353.28)"/>
    <path class="cls-5" d="M-.19,741.88s64-34.34,102.14-34.34S239,739.17,262.53,740.79,359,724.57,369.58,724.57s103,14.6,109.49,15.41,116.2,1.9,116.2,1.9V842H-.19Z" transform="translate(0.19 -353.28)"/>
    <ellipse class="cls-6" cx="472.24" cy="289.8" rx="60.18" ry="59.65"/>
    <rect class="cls-7" x="464.79" y="296.67" width="15.4" height="106.64"/>
    <ellipse class="cls-8" cx="515.65" cy="338.38" rx="39.18" ry="38.84"/>
    <rect class="cls-7" x="510.25" y="344.18" width="12.67" height="71.8"/>
    <path class="cls-9" d="M55.31,799.1a3.32,3.32,0,0,1,2.27.31,3.81,3.81,0,0,1,1.47,1.51,2.6,2.6,0,0,1-.2,2.14,5.78,5.78,0,0,1-2.17,2.22,5.49,5.49,0,0,1-3,1,2.48,2.48,0,0,1-2-1.45,4.48,4.48,0,0,1,.22-2.52,6.42,6.42,0,0,1,2.1-2.64A5.7,5.7,0,0,1,55.31,799.1Z" transform="translate(0.19 -353.28)"/>
    <path class="cls-9" d="M55.38,806.41s1.8-1.75,3.55-1.72a5,5,0,0,1,2.68.71,2.91,2.91,0,0,1,1.1,2.07,2.72,2.72,0,0,1-1.22,2.2,7.08,7.08,0,0,1-4,1.14c-1.49-.23-2.54-.41-3-1.72S55.38,806.41,55.38,806.41Z" transform="translate(0.19 -353.28)"/>
    <path class="cls-9" d="M57.5,811.2s2.46.28,3,1.78a2.51,2.51,0,0,1-.7,2.54,5.57,5.57,0,0,1-2.68,1.13,5.17,5.17,0,0,1-3.44-.71c-.81-.62-.82-2.24-.82-2.24a4.3,4.3,0,0,1,1.82-2.08A7.17,7.17,0,0,1,57.5,811.2Z" transform="translate(0.19 -353.28)"/>
  </g>
  <g id="Layer_2" data-name="Layer 2">
    <path class="cls-9" d="M45.11,803.88a9.74,9.74,0,0,1,2.6,1.14,2.8,2.8,0,0,0,1.79.2,2.77,2.77,0,0,1,2.32.5,5.17,5.17,0,0,1,1.56,2.33,3.58,3.58,0,0,1,.2,1.93c-.09.46-.83,1.83-.83,1.93s-.45.92-.29,1.48a7.85,7.85,0,0,1-.26,3.05,3.72,3.72,0,0,1-1.81,1.81,3.68,3.68,0,0,1-3.1.14,5.3,5.3,0,0,1-2.87-2.86c-.81-1.79-.47-2.14-1.26-3s-1.86-1.17-2.52-2.93a4.59,4.59,0,0,1,.28-4.22A4.37,4.37,0,0,1,45.11,803.88Z" transform="translate(0.19 -353.28)"/>
    <path class="cls-9" d="M47.8,797.44A2.68,2.68,0,0,1,52,800a5.2,5.2,0,0,1-1,2.61A8.8,8.8,0,0,1,49.82,804a2.63,2.63,0,0,1-2,.65,3.12,3.12,0,0,1-2.38-1.8,3.92,3.92,0,0,1,.62-3.64A11.43,11.43,0,0,1,47.8,797.44Z" transform="translate(0.19 -353.28)"/>
    <path class="cls-9" d="M81.2,777.87a3.23,3.23,0,0,1,1.72,1.51,3.74,3.74,0,0,1,.38,2.07A2.63,2.63,0,0,1,82,783.13a5.9,5.9,0,0,1-3,.64,5.6,5.6,0,0,1-3-.82,2.48,2.48,0,0,1-.87-2.33,4.5,4.5,0,0,1,1.58-2,6.36,6.36,0,0,1,3.21-1A5.38,5.38,0,0,1,81.2,777.87Z" transform="translate(0.19 -353.28)"/>
    <path class="cls-9" d="M77.2,784s2.47-.46,3.91.55A5,5,0,0,1,83,786.6a2.9,2.9,0,0,1-.23,2.33,2.77,2.77,0,0,1-2.24,1.16,7.14,7.14,0,0,1-4-1.29c-1.11-1-1.88-1.75-1.54-3.09S77.2,784,77.2,784Z" transform="translate(0.19 -353.28)"/>
    <path class="cls-9" d="M76.31,789.15s1.89,1.6,1.47,3.11a2.49,2.49,0,0,1-2,1.73,5.56,5.56,0,0,1-2.86-.55,5.1,5.1,0,0,1-2.46-2.5,3.34,3.34,0,0,1,.56-2.32,4.34,4.34,0,0,1,2.67-.71A7,7,0,0,1,76.31,789.15Z" transform="translate(0.19 -353.28)"/>
    <path class="cls-9" d="M70.07,776.18a9.91,9.91,0,0,1,1.53,2.38A2.76,2.76,0,0,0,73,779.73a2.78,2.78,0,0,1,1.65,1.7,5.2,5.2,0,0,1,0,2.8,3.76,3.76,0,0,1-.91,1.72C73.4,786.28,72,787,72,787.1s-.88.51-1.06,1.07A7.64,7.64,0,0,1,69,790.56a3.79,3.79,0,0,1-2.51.51,3.74,3.74,0,0,1-2.66-1.61,5.36,5.36,0,0,1-.79-4c.32-1.94.79-2,.63-3.21s-.91-2-.47-3.83a4.58,4.58,0,0,1,2.57-3.35A4.35,4.35,0,0,1,70.07,776.18Z" transform="translate(0.19 -353.28)"/>
    <path class="cls-9" d="M75.88,772.32a3,3,0,0,1,2.52,1.49,3.11,3.11,0,0,1-.38,3,5.22,5.22,0,0,1-2.29,1.61,8.72,8.72,0,0,1-1.8.51,2.61,2.61,0,0,1-2-.56,3.11,3.11,0,0,1-1-2.82,3.94,3.94,0,0,1,2.54-2.69A11.29,11.29,0,0,1,75.88,772.32Z" transform="translate(0.19 -353.28)"/>
    <path class="cls-9" d="M131,799.73a3.3,3.3,0,0,1,1.8,1.41,3.86,3.86,0,0,1,.49,2.05,2.61,2.61,0,0,1-1.26,1.75,5.93,5.93,0,0,1-3,.81,5.61,5.61,0,0,1-3.05-.66,2.49,2.49,0,0,1-1-2.28,4.6,4.6,0,0,1,1.47-2.06,6.4,6.4,0,0,1,3.15-1.2A5.67,5.67,0,0,1,131,799.73Z" transform="translate(0.19 -353.28)"/>
    <path class="cls-9" d="M127.3,806.05s2.44-.59,3.93.33a5,5,0,0,1,2,2,2.89,2.89,0,0,1-.11,2.33A2.73,2.73,0,0,1,130.9,812a7.07,7.07,0,0,1-4.05-1.07c-1.17-.95-2-1.64-1.7-3S127.3,806.05,127.3,806.05Z" transform="translate(0.19 -353.28)"/>
    <path class="cls-9" d="M126.69,811.26s2,1.49,1.64,3a2.51,2.51,0,0,1-1.89,1.84,5.64,5.64,0,0,1-2.89-.4,5.11,5.11,0,0,1-2.6-2.36,3.35,3.35,0,0,1,.44-2.35,4.37,4.37,0,0,1,2.62-.86A7.21,7.21,0,0,1,126.69,811.26Z" transform="translate(0.19 -353.28)"/>
    <path class="cls-9" d="M119.74,798.65a9.24,9.24,0,0,1,1.66,2.3,2.74,2.74,0,0,0,1.45,1.08,2.81,2.81,0,0,1,1.74,1.62,5.22,5.22,0,0,1,.16,2.8,3.67,3.67,0,0,1-.82,1.76c-.3.35-1.64,1.15-1.7,1.24s-.84.56-1,1.13a7.7,7.7,0,0,1-1.77,2.49,3.74,3.74,0,0,1-2.48.64,3.68,3.68,0,0,1-2.74-1.46,5.29,5.29,0,0,1-1-3.92c.21-2,.67-2.08.45-3.24s-1-2-.68-3.81a4.59,4.59,0,0,1,2.38-3.48A4.35,4.35,0,0,1,119.74,798.65Z" transform="translate(0.19 -353.28)"/>
    <path class="cls-9" d="M125.34,794.48a2.67,2.67,0,0,1,2.37,4.31,5.08,5.08,0,0,1-2.19,1.74,8.81,8.81,0,0,1-1.77.61,2.61,2.61,0,0,1-2-.45,3.11,3.11,0,0,1-1.13-2.76,3.9,3.9,0,0,1,2.39-2.82A11.34,11.34,0,0,1,125.34,794.48Z" transform="translate(0.19 -353.28)"/>
    <path class="cls-9" d="M154,778.43a3.26,3.26,0,0,1,1.21,2,3.86,3.86,0,0,1-.23,2.09,2.62,2.62,0,0,1-1.79,1.21,5.78,5.78,0,0,1-3.09-.26,5.54,5.54,0,0,1-2.64-1.66,2.44,2.44,0,0,1-.16-2.48,4.52,4.52,0,0,1,2.08-1.44,6.44,6.44,0,0,1,3.37-.05A5.76,5.76,0,0,1,154,778.43Z" transform="translate(0.19 -353.28)"/>
    <path class="cls-9" d="M148.38,783.13s2.5.27,3.59,1.65a5,5,0,0,1,1.16,2.52,2.92,2.92,0,0,1-.9,2.16,2.75,2.75,0,0,1-2.48.46,7.2,7.2,0,0,1-3.44-2.38c-.77-1.3-1.3-2.23-.58-3.41S148.38,783.13,148.38,783.13Z" transform="translate(0.19 -353.28)"/>
    <path class="cls-9" d="M146,787.81s1.34,2.08.5,3.41a2.5,2.5,0,0,1-2.4,1.08,5.62,5.62,0,0,1-2.58-1.35,5.18,5.18,0,0,1-1.64-3.11c0-1,1.21-2.06,1.21-2.06a4.33,4.33,0,0,1,2.76.09A7.16,7.16,0,0,1,146,787.81Z" transform="translate(0.19 -353.28)"/>
    <path class="cls-9" d="M143.81,773.6a9.77,9.77,0,0,1,.78,2.72,2.69,2.69,0,0,0,1,1.51,2.79,2.79,0,0,1,1.09,2.11,5.16,5.16,0,0,1-.81,2.69,3.64,3.64,0,0,1-1.36,1.38c-.41.22-2,.52-2,.58s-1,.24-1.33.72a7.65,7.65,0,0,1-2.51,1.74,3.83,3.83,0,0,1-2.55-.24A3.7,3.7,0,0,1,134,784.5a5.39,5.39,0,0,1,.39-4c.87-1.76,1.35-1.72,1.53-2.89s-.28-2.18.66-3.81A4.6,4.6,0,0,1,140,771.3,4.36,4.36,0,0,1,143.81,773.6Z" transform="translate(0.19 -353.28)"/>
    <path class="cls-9" d="M150.49,771.58a2.68,2.68,0,0,1,.76,4.87,5.12,5.12,0,0,1-2.66.88,8.4,8.4,0,0,1-1.86,0,2.6,2.6,0,0,1-1.77-1.13,3.07,3.07,0,0,1-.13-3,3.91,3.91,0,0,1,3.21-1.84A11.24,11.24,0,0,1,150.49,771.58Z" transform="translate(0.19 -353.28)"/>
  </g>
</svg>
