<svg id="Layer_15" data-name="Layer 15" xmlns="http://www.w3.org/2000/svg" viewBox="0 0 224.32 124.49">
  <defs>
    <style>
      .cls-1 {
        fill: #282828;
      }

      .cls-2 {
        fill: #ffc107;
      }
    </style>
  </defs>
  <title>hover</title>
  <path class="cls-1" d="M346.63,94.81a32.45,32.45,0,1,0-49.3-39.16H202.48a32.45,32.45,0,1,0-49.78,38,32.45,32.45,0,1,0,47.53,42.53h98.22a32.45,32.45,0,1,0,48.18-41.41Z" transform="translate(-135 -35.51)"/>
  <path class="cls-2" d="M341.63,101.81a32.45,32.45,0,1,0-49.3-39.16H197.48a32.45,32.45,0,1,0-49.78,38,32.45,32.45,0,1,0,47.53,42.53h98.22a32.45,32.45,0,1,0,48.18-41.41Z" transform="translate(-135 -35.51)"/>
</svg>
