<svg id="Layer_1" data-name="Layer 1" xmlns="http://www.w3.org/2000/svg" viewBox="0 0 157.26 147.12">
  <defs>
    <style>
      .cls-1 {
        fill: #055e9b;
      }

      .cls-2 {
        fill: #008cff;
      }
    </style>
  </defs>
  <title>paw</title>
  <g>
    <path class="cls-1" d="M215.38,182.45c5.92,1.57,12.41-1.78,16.78-6.59s5.27-15.43,5.61-21.91a42.55,42.55,0,0,0-5-21.93,19.06,19.06,0,0,0-12.3-9.62,27.54,27.54,0,0,0-15,3c-7.94,4-10.74,12.63-10.74,12.63-1.35,3.24-1.69,10.06-1.69,10.06.1,10.52,5.91,20.36,7.81,23.16S209.45,180.88,215.38,182.45Z" transform="translate(-155.11 -122.28)"/>
    <path class="cls-1" d="M252.27,182.41c9.78,2.38,15-3.3,22.25-11.5s8.86-24.13,8.86-29-2-11.2-8.66-16.1-16.88-1.43-16.88-1.43-7.73,3-14.84,13.55-3.5,28.4-3.5,28.4S242.49,180,252.27,182.41Z" transform="translate(-155.11 -122.28)"/>
    <path class="cls-1" d="M312.22,175.36S310.5,164,299.46,161.15s-22.41,11-22.41,11-7.27,9.77-8.7,19.08,5.51,19.25,5.51,19.25,9.93,6.32,16.87,3.8,12.95-9.29,17.85-18.12S312.22,175.36,312.22,175.36Z" transform="translate(-155.11 -122.28)"/>
    <path class="cls-1" d="M270.59,211.54c-4.06-1.3-7.28-7.19-7.89-7.59s-6.07-10.34-8.5-12.67-4.82-4-12.56-6.38-16.48-.87-20.3.35-8.73,4.3-12.18,12.17-8.27,10.15-8.27,10.15c-11.2,5.49-17.09,11.37-17.09,11.37-7.91,7.19-11.35,23.2-7.44,31.37s11.27,15.32,24.57,18.24,19.29-2.58,27.76-3.87,9.25,2.09,23.35,4.17,22.31-2.22,28.71-6.2,10.21-11.4,11.34-19.44a27.41,27.41,0,0,0-4-18.16C285.89,221.41,274.65,212.84,270.59,211.54Z" transform="translate(-155.11 -122.28)"/>
    <path class="cls-1" d="M199.06,205.34c5.36-5.44,3.87-14.71,3.87-14.71s-.12-2.45-3.9-13a37.58,37.58,0,0,0-12-16.4s-11-7.84-21.4-2.47-10.54,18.46-10.54,18.46A84,84,0,0,0,159,194.69c3.05,8.71,11.56,16.75,19.78,18.09S193.7,210.79,199.06,205.34Z" transform="translate(-155.11 -122.28)"/>
  </g>
  <g>
    <path class="cls-2" d="M217,182.31c5.49,1.45,11.49-1.65,15.53-6.09S237.39,162,237.71,156a39.39,39.39,0,0,0-4.64-20.28,17.6,17.6,0,0,0-11.37-8.9,25.5,25.5,0,0,0-13.87,2.78c-7.34,3.71-9.94,11.68-9.94,11.68-1.24,3-1.56,9.31-1.56,9.31.1,9.72,5.47,18.83,7.23,21.41S211.51,180.86,217,182.31Z" transform="translate(-155.11 -122.28)"/>
    <path class="cls-2" d="M251.12,182.28c9,2.19,13.86-3.06,20.58-10.64s8.19-22.32,8.2-26.84-1.89-10.36-8-14.89-15.61-1.33-15.61-1.33-7.15,2.77-13.73,12.54-3.23,26.26-3.23,26.26S242.07,180.08,251.12,182.28Z" transform="translate(-155.11 -122.28)"/>
    <path class="cls-2" d="M306.57,175.76s-1.59-10.51-11.81-13.14S274,172.81,274,172.81s-6.72,9-8,17.65,5.1,17.81,5.1,17.81,9.18,5.84,15.61,3.51,12-8.59,16.5-16.76S306.57,175.76,306.57,175.76Z" transform="translate(-155.11 -122.28)"/>
    <path class="cls-2" d="M268.06,209.22c-3.75-1.2-6.73-6.65-7.3-7s-5.61-9.55-7.85-11.71-4.46-3.73-11.63-5.9-15.24-.81-18.77.32-8.08,4-11.27,11.26-7.65,9.38-7.65,9.38c-10.36,5.09-15.81,10.52-15.81,10.52-7.31,6.65-10.49,21.46-6.88,29s10.43,14.18,22.73,16.88,17.84-2.38,25.68-3.58,8.56,1.93,21.59,3.86,20.64-2.06,26.56-5.73,9.45-10.55,10.49-18a25.4,25.4,0,0,0-3.66-16.8C282.21,218.35,271.82,210.42,268.06,209.22Z" transform="translate(-155.11 -122.28)"/>
    <path class="cls-2" d="M201.9,203.49c5-5,3.58-13.61,3.58-13.61s-.11-2.27-3.61-12a34.82,34.82,0,0,0-11.07-15.17s-10.18-7.25-19.8-2.28-9.75,17.08-9.75,17.08a78.08,78.08,0,0,0,3.6,16.13c2.82,8.05,10.69,15.49,18.29,16.73S197,208.52,201.9,203.49Z" transform="translate(-155.11 -122.28)"/>
  </g>
</svg>
