<svg id="Layer_1" data-name="Layer 1" xmlns="http://www.w3.org/2000/svg" viewBox="0 0 94.17 94.17">
  <defs>
    <style>
      .cls-1 {
        fill: #d1d3d4;
      }

      .cls-2 {
        fill: #808285;
      }
    </style>
  </defs>
  <title>phone</title>
  <circle class="cls-1" cx="47.08" cy="47.08" r="47.08"/>
  <path class="cls-2" d="M179.06,308.82l0-.05-.36-.18a9.8,9.8,0,0,0-3.08-1.41c-3.53-1.52-8.93-3.53-12-3.05-4.78.75-25.63,21.26-29,25.16-3.06,3.49-3,13-3,14.93,0,.11,0,.22,0,.34,0,6.14,4.6,11.11,10.28,11.11s10.28-5,10.28-11.11a11.71,11.71,0,0,0-2-6.54c.53-1.3,5.32-12.27,14.55-13.62l0,0a10.07,10.07,0,0,0,8.42,4.73c5.67,0,10.28-5,10.28-11.12A11.36,11.36,0,0,0,179.06,308.82Z" transform="translate(-108.61 -280.28)"/>
</svg>
